<?xml version="1.0" encoding="UTF-8"?><svg id="b" xmlns="http://www.w3.org/2000/svg" width="200" height="200" xmlns:xlink="http://www.w3.org/1999/xlink" viewBox="0 0 200 200"><defs><clipPath id="d"><rect width="200" height="200" fill="none"/></clipPath><pattern id="e" x="0" y="0" width="25" height="25" patternTransform="translate(-5541.87 -8893.65) rotate(-45) scale(.32)" patternUnits="userSpaceOnUse" viewBox="0 0 25 25"><g><rect width="25" height="25" fill="none"/><rect x="24.29" y="24.29" width="26.43" height="26.43" fill="#fff"/><rect x="-.71" y="24.29" width="26.43" height="26.43" fill="#fff"/><rect x="-25.71" y="24.29" width="26.43" height="26.43" fill="#fff"/><g><rect x="24.29" y="-.71" width="26.43" height="26.43" fill="#fff"/><line x1="23.61" y1="12.5" x2="51.39" y2="12.5" fill="none" stroke="#33c8e7" stroke-miterlimit="10" stroke-width="5"/></g><g><rect x="-.71" y="-.71" width="26.43" height="26.43" fill="#fff"/><line x1="-1.39" y1="12.5" x2="26.39" y2="12.5" fill="none" stroke="#33c8e7" stroke-miterlimit="10" stroke-width="5"/></g><g><rect x="-25.71" y="-.71" width="26.43" height="26.43" fill="#fff"/><line x1="-26.39" y1="12.5" x2="1.39" y2="12.5" fill="none" stroke="#33c8e7" stroke-miterlimit="10" stroke-width="5"/></g><rect x="24.29" y="-25.71" width="26.43" height="26.43" fill="#fff"/><rect x="-.71" y="-25.71" width="26.43" height="26.43" fill="#fff"/><rect x="-25.71" y="-25.71" width="26.43" height="26.43" fill="#fff"/></g></pattern></defs><g id="c"><g clip-path="url(#d)"><path d="M99.05,117c.13,.22,.24,.45,.39,.66,.03,.05,.07,.09,.1,.14,.13,.12,.24,.28,.36,.41,.14,.15,.29,.29,.45,.43,.04,.04,.2,.15,.26,.21,.06,.04,.12,.08,.14,.1,.13,.08,.26,.16,.4,.24,.15,.09,.31,.16,.47,.24,0,0,0,0,.02,0,.28,.09,.56,.19,.84,.26,.14,.04,.29,.06,.44,.09,.04,0,.08,.01,.09,.01,.29,.02,.59,.03,.88,.02,.03,0,.13,0,.24,0,.02,0,0,0,.04-.01,.06-.01,.12-.02,.19-.03,.31-.06,.61-.14,.91-.24,.08-.03,.16-.06,.24-.08,.03,0,.04-.01,.06-.01,.06-.04,.12-.08,.16-.09,.27-.14,.51-.3,.76-.46,.01,0,.02-.01,.03-.02,.01,0,.01-.01,.03-.03,.11-.1,.23-.2,.34-.31,.13-.12,.24-.25,.37-.38,.02-.03,.05-.05,.07-.08,.17-.27,.36-.53,.52-.82,.04-.08,.09-.17,.13-.25h-8.91Z" fill="#fff"/><path d="M91.61,76.76s-.01,0-.02,0c0,0,.02,0,.02,0,0,0,0,0,0,0Z" fill="#fff"/><path d="M128.25,147.37c-2.92-4.15-3.75-9.32-4.6-14.29-10.97,10.2-28.12,10.86-40.15,2.06-.46-.33-.89-.7-1.32-1.05-1.14,6.07-3.55,11.45-8.19,15.45,.15,.02,.29,.04,.45,.09,9.21,2.81,18.83,4.29,28.46,4.44,9.2,.14,18.74-.88,27.31-4.44-.71-.68-1.38-1.42-1.96-2.25Z" fill="#fff"/><path d="M91.61,76.76s.02,0,.03,0c0,0,0,0,.02,0-.02,0-.03,0-.05,0Z" fill="#fff"/><path d="M104.4,119.8s-.15,.02-.24,.04c.11,0,.22-.01,.24-.04Z" fill="#fff"/><path d="M136.92,86.07c-.18,.05-.38,.08-.6,.08-.24,.07-.47,.17-.7,.34-1.26,.94-2.49,.21-2.99-.93-3.34-.89-6.33-2.66-8.93-5.07-1-.92-1.91-1.94-2.78-2.98-.42-.16-.85-.33-1.28-.46-.29-.09-.59-.16-.89-.23-.16-.03-.33-.07-.49-.09-.02,0-.07-.01-.12-.02-.11-.01-.3-.03-.37-.04-.18-.01-.36-.03-.54-.03-.36-.01-.73-.02-1.09,0-.4,.01-.8,.04-1.19,.08-.1,0-.2,.02-.3,.03-.07,0-.42,.06-.08,0,.37-.06-.1,.01-.17,.03-.11,.02-.22,.03-.32,.05-.63,.1-1.16,.07-1.73-.23-.52-.27-.85-.8-1.03-1.34-.17-.54-.06-1.25,.23-1.73,.25-.43,.82-.95,1.34-1.03,1.43-.23,2.87-.39,4.31-.34-2.54-4.33-4.41-9.1-5.79-13.76-1.03-3.44-3.07-6.49-6.56-7.82-3.76-1.44-7.23,.19-9.42,3.4-1.62,2.37-5.5,.13-3.87-2.26,0,0,0-.01,.01-.02-1.69,1.88-3.46,3.95-5.58,5.45,.51,.56,.78,1.36,.5,2.07-2.38,6.3-4.4,12.85-7.7,18.75-1.91,3.41-4.45,6.62-7.84,8.34-.43,.84-1.31,1.41-2.48,1.07-.11-.03-.22-.04-.33-.06-.62,.14-1.27,.22-1.94,.25-.88,.42-1.62,1.19-2.17,2.07-.98,1.57-1.03,3.47-.88,5.28,.23,2.68,1.33,4.89,3.2,6.3,1.21-.3,2.51-.27,3.66,.16,.81,.3,1.53,.76,2.15,1.3,.04,.04,.08,.07,.13,.11,1.27,1.18,2.05,2.81,2.08,4.65,0,.16-.02,.32-.05,.47-.06,.68-.23,1.35-.49,1.98,.57,2.65,1.23,5.31,2.08,7.85,4.05,12.16,16.5,20.15,29.22,19.02,6.87-.61,13.58-4.17,17.88-9.56,3.98-4.98,5.57-11.27,6.64-17.47-.84-2.19-.35-4.69,1.17-6.51,1.63-1.95,4.6-2.73,6.98-1.85,.42,.16,.81,.36,1.18,.59,1.09-1.49,1.85-3.22,2.2-5.03,.41-2.16,.69-4.91-.03-7.03-.52-1.53-2.43-3.81-4.24-3.85Zm-33.64,17.29c2.89,0,2.88,4.48,0,4.48s-2.88-4.48,0-4.48Zm-13.44-15.08c-2.89,0-2.88-4.48,0-4.48s2.88,4.48,0,4.48Zm2.18-11.45c-.12-.02-.25-.04-.37-.06-.52,0-.22-.03-.05,0-.17-.01-.35-.04-.53-.06-.39-.04-.79-.06-1.18-.07-.36-.01-.72,0-1.09,0-.18,0-.36,.02-.54,.04-.05,0-.19,.02-.29,.03-.08,.01-.16,.02-.2,.03-.16,.03-.33,.06-.49,.1-.3,.07-.6,.14-.89,.23-.59,.17-1.16,.39-1.73,.63-.54,.23-1.23,.04-1.73-.23-.52-.27-.85-.8-1.03-1.34-.17-.54-.06-1.25,.23-1.73,.32-.55,.77-.79,1.34-1.03,1.4-.58,2.81-.94,4.32-1.13,1.81-.22,3.62-.02,5.42,.26,1.24,.2,1.81,1.68,1.56,2.75-.12,.53-.56,1.07-1.03,1.34-.56,.33-1.11,.32-1.73,.23Zm18.44,44.45c-2.3,2.66-6.2,3.65-9.53,2.65-3.88-1.17-6.47-4.65-7.13-8.57,0-.03,0-.06,0-.1-.04-.16-.07-.33-.08-.5-.03-.65,.29-1.24,.76-1.65,.06-.06,.12-.1,.19-.15,.18-.13,.39-.23,.6-.3,.04-.01,.06-.04,.1-.05,.04-.01,.08-.01,.11-.02,.07-.02,.13-.02,.2-.03,.05,0,.1-.01,.15-.02,.05,0,.09-.01,.14-.01h14.81c1.14,0,2.33,1.03,2.24,2.24-.19,2.42-.94,4.66-2.55,6.51Zm5.61-33c-2.89,0-2.88-4.48,0-4.48s2.88,4.48,0,4.48Z" fill="#fff"/><path d="M91.56,51.7c2.94-4.29,7.42-6.91,12.71-5.92,3.98,.75,7.5,3.52,9.59,6.93,2.17,3.55,2.83,8.02,4.51,11.83,3.22,7.28,8.67,16.21,17.41,17.09,1.67-.25,3.43,.26,4.97,1.18,4.14-6.54,5.72-14.41,2.55-21.78-2.5-5.79-7.38-10-11.88-14.22-2.37-2.22-4.66-4.5-6.7-7.04-2.19-2.73-4.22-5.64-6.83-8-7.91-7.14-22.66-5.17-28.69,3.55-1.43,2.06-4.57,.61-4.24-1.38-.46,.42-.89,.88-1.25,1.39,.95,1.15,.85,3.16-1.02,3.55-11.51,2.39-17.57,13.32-19.42,24.1-.49,2.84-.36,5.75-.96,8.57-.56,2.61-1.81,4.85-3.21,7.09-1.33,2.12-2.49,4.27-1.57,6.8,.44,1.21,1.16,2.3,1.97,3.33,.3-.74,.69-1.46,1.18-2.13,1.74-2.37,4.31-3.95,7.16-3.85,3.49-1.09,5.88-4.79,7.58-8.02,2.8-5.33,4.62-11.13,6.74-16.74,.43-1.14,1.5-1.91,2.75-1.56,.4,.11,.77,.36,1.06,.68,2.12-1.5,3.89-3.57,5.58-5.45Zm28.97,7.23c1.24-.34,2.33,.43,2.75,1.56,.03,.08,.06,.17,.1,.25,.09,.19,.17,.38,.27,.57,.19,.38,.39,.75,.59,1.11,.47,.81,.99,1.6,1.54,2.36,1.09,1.49,2.69,3.18,4.26,4.5,1.48,1.24,3.41,2.45,5.17,3.05,2.04,.69,3.84,.81,5.83,.25,2.78-.79,3.96,3.53,1.19,4.32-5.43,1.54-10.73-.71-14.94-4.1-3.57-2.88-6.71-6.79-8.34-11.11-.43-1.14,.48-2.46,1.56-2.75Z" fill="#fff"/><path d="M49.59,185.36c-.34-.87,.23-2.13,1.03-2.53,2.27-1.14,4.61-2.17,6.96-3.18-2.24-.26-4.61-.59-6.48-1.79-2.98-1.91-1.96-5.25-.92-7.92,1.46-3.76,3.12-7.46,4.85-11.1-2.15,.74-4.3,1.45-6.42,2.17-4.16,1.42-8.32,2.91-12.15,5.11-2.72,1.56-5.66,3.5-7.35,6.06-3.24,4.91-5.17,10.78-7.05,16.31-1.21,3.57-2.36,7.17-3.37,10.8-.08,.28-.2,.51-.34,.71H55.58c-.18-.2-.33-.43-.45-.71-1.85-4.65-3.7-9.3-5.55-13.95Z" fill="url(#e)"/><path d="M70.56,175.13c-.89-7.28-1.59-14.59-2.15-21.9-3.07,1.68-6.32,3.05-9.63,4.28,.68,.64,1.04,1.65,.53,2.71-1.6,3.32-3.13,6.68-4.5,10.1-.45,1.13-1,2.3-1.26,3.49,0,.04-.01,.07-.01,.11,.04,.13,.11,.25-.03,.2-.04-.02,.76,.34,1.01,.42,3.64,1.18,7.86,1.26,11.65,1.66,1.92,.2,3.4,3.19,1.13,4.17-4.22,1.83-8.55,3.54-12.71,5.52,1.62,4.08,3.24,8.16,4.86,12.23,.31,.79,.15,1.44-.24,1.9h15.84c-.14-.2-.26-.43-.34-.71-2.14-7.88-3.17-16.09-4.16-24.18Z" fill="url(#e)"/><path d="M165.41,167.35c-4.78-3.27-9.99-6.14-15.37-8.42,1.72,3.62,3.37,7.28,4.81,11.02,1.03,2.66,2.05,6.01-.92,7.92-1.87,1.2-4.24,1.53-6.48,1.79,2.35,1,4.69,2.03,6.96,3.18,1.18,.59,1.26,2.01,.8,3.06-2.04,4.65-4.08,9.3-6.12,13.95-.03,.07-.07,.12-.1,.18h32.32c-1.51-6.52-3.56-13-6.32-19.09-2.23-4.91-4.99-10.44-9.58-13.57Z" fill="url(#e)"/><path d="M145.22,197.58c1.72-3.91,3.43-7.82,5.15-11.73-4.14-1.97-8.45-3.66-12.64-5.49-2.28-.99-.79-3.97,1.13-4.17,3.79-.4,8.01-.47,11.65-1.66,.05-.02,.81-.41,.98-.44,.02-.08,.02-.16,.01-.21-.02-.08-.05-.16-.06-.18-.37-1.15-.78-2.27-1.23-3.39-1.37-3.42-2.9-6.78-4.5-10.1-.53-1.1-.13-2.14,.59-2.78-.01,0-.02,0-.03-.01-2.91-1.07-6.11-2.06-9.11-3.39-.25,2.98-.61,5.95-.99,8.91-1.58,12.16-3.54,24.28-5.64,36.36-.05,.28-.14,.51-.26,.71h15.27c-.5-.64-.73-1.52-.32-2.44Z" fill="url(#e)"/><path d="M126.22,198.11c.25-1.46,.5-2.92,.75-4.39,2.24-13.33,4.83-26.83,5.77-40.35-7.05,2.99-14.61,4.48-22.24,4.96,1.37,9.72,2.26,19.5,3.69,29.21,.18,1.19-.28,2.42-1.56,2.75-1.07,.28-2.58-.36-2.75-1.56-1.48-10.05-2.38-20.18-3.83-30.23-.85,.01-1.7,.03-2.55,.02-1.15-.01-2.3-.05-3.45-.09-.16,1.24-.31,2.48-.47,3.72-1.12,8.91-2.23,17.82-3.35,26.74-.15,1.2-.9,2.25-2.24,2.24-1.1-.01-2.39-1.03-2.24-2.24l.48-3.8c1.12-8.91,2.23-17.82,3.35-26.74,0-.07,.03-.13,.04-.19-7.58-.62-15.12-2.03-22.37-4.24-.11-.03-.2-.08-.3-.13,.54,6.94,1.2,13.86,2.03,20.77,.95,7.88,1.98,15.87,4.06,23.54,.21,.78,.02,1.43-.37,1.9h48.07c-.41-.48-.65-1.13-.51-1.9Z" fill="#fff"/><path d="M45.7,43.84c.63,.98,2.02,1.48,3.06,.8,.98-.63,1.48-2.01,.8-3.06-1.52-2.36-3.04-4.72-4.55-7.08-.22-.34-.43-.67-.65-1.01-.63-.98-2.02-1.48-3.06-.8-.98,.63-1.48,2.01-.8,3.06,1.52,2.36,3.04,4.72,4.55,7.08,.22,.34,.43,.67,.65,1.01Z" fill="#2e2e2e"/><path d="M24.45,57.94c-.26,1.15,.35,2.46,1.56,2.75,2.68,.65,5.35,1.31,8.03,1.96,.38,.09,.75,.18,1.13,.28,1.14,.28,2.48-.36,2.75-1.56,.26-1.15-.35-2.46-1.56-2.75-2.68-.65-5.35-1.31-8.03-1.96-.38-.09-.75-.18-1.13-.28-1.14-.28-2.48,.36-2.75,1.56Z" fill="#2e2e2e"/><path d="M31.44,42.25c-.98-.64-2.52-.23-3.06,.8-.59,1.12-.25,2.38,.8,3.06,2.84,1.85,5.68,3.7,8.53,5.56,.41,.27,.82,.53,1.23,.8,.98,.64,2.52,.23,3.06-.8,.59-1.12,.25-2.38-.8-3.06-2.84-1.85-5.68-3.7-8.53-5.56-.41-.27-.82-.53-1.23-.8Z" fill="#2e2e2e"/><path d="M93.2,72.51c-1.79-.29-3.61-.49-5.42-.26-1.51,.19-2.92,.55-4.32,1.13-.56,.23-1.02,.48-1.34,1.03-.28,.48-.4,1.19-.23,1.73,.18,.54,.51,1.06,1.03,1.34,.49,.26,1.18,.45,1.73,.23,.57-.24,1.14-.45,1.73-.63,.29-.09,.59-.16,.89-.23,.16-.04,.32-.07,.49-.1,.03,0,.12-.02,.2-.03,.1-.01,.24-.03,.29-.03,.18-.02,.36-.03,.54-.04,.36-.02,.72-.02,1.09,0,.4,.01,.79,.04,1.18,.07,.17,.02,.35,.05,.53,.06,0,0,.01,0,.02,0,0,0,0,0,0,0,.02,0,.03,0,.05,0,0,0,0,0-.02,0,.12,.02,.25,.04,.37,.06,.61,.1,1.17,.1,1.73-.23,.46-.27,.91-.8,1.03-1.34,.24-1.08-.33-2.56-1.56-2.75Z" fill="#2e2e2e"/><path d="M91.59,76.76c-.16-.02-.46,0,.05,0-.01,0-.02,0-.03,0,0,0-.02,0-.02,0Z" fill="#2e2e2e"/><path d="M116.07,83.8c-2.88,0-2.89,4.48,0,4.48s2.89-4.48,0-4.48Z" fill="#2e2e2e"/><path d="M103.28,103.36c-2.88,0-2.89,4.48,0,4.48s2.89-4.48,0-4.48Z" fill="#2e2e2e"/><path d="M89.83,88.28c2.88,0,2.89-4.48,0-4.48s-2.89,4.48,0,4.48Z" fill="#2e2e2e"/><path d="M185.66,198.96c-1.34-5.82-3.15-11.56-5.42-17.08-2.27-5.51-4.97-11.17-9.14-15.53-2.09-2.18-4.71-3.77-7.29-5.31-3.18-1.9-6.46-3.63-9.81-5.2-6.39-2.99-13.91-4.35-19.65-8.56-5.5-4.03-5.75-12.29-6.95-18.48,3.19-4.54,4.93-9.88,6.08-15.36,1.12,.4,2.34,.51,3.57,.3,2.8-.5,4.83-3.04,5.07-5.8,.03-.15,.05-.31,.05-.47,0-.67-.12-1.31-.32-1.92,2.13-2.67,3.54-6.12,3.91-9.06,.46-3.6,.46-7.5-1.68-10.6,4.51-6.64,6.6-14.71,4.66-22.62-1.79-7.29-6.82-12.75-12.15-17.75-2.61-2.45-5.26-4.86-7.6-7.57-2.6-3.02-4.77-6.4-7.71-9.12-4.87-4.51-11.48-6.36-18.03-5.68-7.07,.74-13.81,3.99-17.92,9.93-.21,.3-.32,.59-.37,.88,.83-.75,1.74-1.4,2.38-2.04-.64,.64-1.54,1.28-2.38,2.04-.33,1.99,2.81,3.44,4.24,1.38,6.03-8.72,20.78-10.69,28.69-3.55,2.62,2.36,4.64,5.27,6.83,8,2.03,2.53,4.33,4.81,6.7,7.04,4.5,4.22,9.38,8.43,11.88,14.22,3.18,7.37,1.6,15.24-2.55,21.78-1.55-.92-3.3-1.43-4.97-1.18-8.74-.88-14.2-9.82-17.41-17.09-1.68-3.81-2.34-8.27-4.51-11.83-2.09-3.41-5.61-6.18-9.59-6.93-5.28-.99-9.77,1.63-12.71,5.92,.59-.66,1.17-1.3,1.75-1.88-.58,.58-1.16,1.22-1.75,1.88,0,0,0,.01-.01,.02-1.63,2.39,2.25,4.63,3.87,2.26,2.19-3.21,5.66-4.84,9.42-3.4,3.49,1.34,5.53,4.38,6.56,7.82,1.39,4.66,3.26,9.44,5.79,13.76-1.44-.05-2.89,.11-4.31,.34-.52,.08-1.08,.59-1.34,1.03-.28,.48-.4,1.19-.23,1.73,.18,.54,.51,1.06,1.03,1.34,.56,.3,1.1,.33,1.73,.23,.11-.02,.22-.03,.32-.05,.08-.01,.54-.08,.17-.03-.34,.05,.01,0,.08,0,.1-.01,.2-.02,.3-.03,.4-.04,.79-.07,1.19-.08,.36-.01,.73-.01,1.09,0,.18,0,.36,.02,.54,.03,.06,0,.26,.03,.37,.04,.05,0,.1,.01,.12,.02,.16,.03,.33,.06,.49,.09,.3,.06,.6,.14,.89,.23,.44,.13,.86,.3,1.28,.46,.87,1.05,1.79,2.06,2.78,2.98,2.6,2.41,5.6,4.18,8.93,5.07,.49,1.13,1.73,1.86,2.99,.93,.23-.17,.46-.27,.7-.34,.22,0,.42-.03,.6-.08,1.81,.04,3.72,2.32,4.24,3.85,.72,2.12,.45,4.87,.03,7.03-.35,1.8-1.1,3.54-2.2,5.03-.37-.23-.76-.43-1.18-.59-2.38-.88-5.35-.1-6.98,1.85-1.52,1.82-2.01,4.32-1.17,6.51-1.07,6.2-2.66,12.5-6.64,17.47-4.31,5.39-11.02,8.95-17.88,9.56-12.72,1.13-25.17-6.86-29.22-19.02-.85-2.55-1.51-5.2-2.08-7.85,.27-.63,.43-1.29,.49-1.98,.03-.15,.05-.31,.05-.47-.03-1.84-.81-3.47-2.08-4.65-.04-.04-.08-.07-.13-.11-.62-.55-1.34-1-2.15-1.3-1.16-.43-2.45-.46-3.66-.16-1.87-1.42-2.97-3.63-3.2-6.3-.16-1.81-.1-3.7,.88-5.28,.55-.88,1.29-1.65,2.17-2.07,.67-.03,1.32-.12,1.94-.25,.11,.02,.22,.03,.33,.06,1.17,.34,2.05-.23,2.48-1.07,3.39-1.71,5.93-4.93,7.84-8.34,3.3-5.9,5.32-12.45,7.7-18.75,.27-.72,0-1.51-.5-2.07-.96,.68-2,1.25-3.12,1.63,1.13-.38,2.16-.94,3.12-1.63-.29-.32-.66-.57-1.06-.68-1.26-.35-2.32,.43-2.75,1.56-2.13,5.62-3.94,11.41-6.74,16.74-1.7,3.23-4.09,6.93-7.58,8.02-2.85-.1-5.43,1.48-7.16,3.85-.49,.67-.88,1.39-1.18,2.13-.81-1.03-1.53-2.12-1.97-3.33-.91-2.53,.24-4.69,1.57-6.8,1.4-2.23,2.65-4.48,3.21-7.09,.6-2.82,.48-5.73,.96-8.57,1.85-10.78,7.91-21.71,19.42-24.1,1.86-.39,1.97-2.4,1.02-3.55-.5,.72-.85,1.54-.85,2.54,0-1,.35-1.82,.85-2.54-.49-.59-1.25-.97-2.21-.77-12.95,2.69-20.45,14.98-22.55,27.22-.55,3.21-.34,6.59-1.25,9.73-.85,2.92-2.96,5.16-4.13,7.93-2.57,6.09,1.37,10.74,5.03,15.22,.02,.03,.05,.05,.07,.07,.03,.47,.08,.95,.14,1.42,.4,2.91,1.6,5.74,3.7,7.8-1.29,2.03-1.47,4.64-.18,6.77,1.45,2.41,4.2,3.48,6.92,3,.29-.05,.57-.14,.84-.24,.34,1.36,.69,2.71,1.07,4.05,1.36,4.83,3.84,9.19,7.14,12.87-.05,.12-.09,.24-.11,.37-.93,6.77-3.08,12.91-9.01,16.78-7.03,4.58-15.33,6.9-23.18,9.63-7.1,2.47-15.56,5.61-20.19,11.91-3.44,4.68-5.42,10.64-7.33,16.06-1.51,4.27-2.9,8.59-4.12,12.95-.22,.78-.03,1.43,.37,1.9h3.61c.14-.2,.26-.43,.34-.71,1.01-3.63,2.16-7.23,3.37-10.8,1.88-5.53,3.81-11.4,7.05-16.31,1.69-2.56,4.63-4.51,7.35-6.06,3.83-2.19,7.98-3.69,12.15-5.11,2.12-.72,4.27-1.43,6.42-2.17-1.74,3.64-3.39,7.34-4.85,11.1-1.03,2.66-2.06,6.01,.92,7.92,1.87,1.2,4.24,1.53,6.48,1.79-2.35,1-4.69,2.03-6.96,3.18-.8,.4-1.37,1.66-1.03,2.53,1.85,4.65,3.7,9.3,5.55,13.95,.11,.28,.27,.51,.45,.71h3.63c.4-.47,.56-1.12,.24-1.9-1.62-4.08-3.24-8.16-4.86-12.23,4.16-1.98,8.49-3.69,12.71-5.52,2.27-.99,.79-3.97-1.13-4.17-3.79-.4-8.01-.48-11.65-1.66-.25-.08-1.06-.44-1.01-.42,.14,.05,.07-.06,.03-.2,0-.04,0-.07,.01-.11,.25-1.19,.81-2.37,1.26-3.49,1.37-3.42,2.9-6.78,4.5-10.1,.51-1.06,.15-2.07-.53-2.71,3.31-1.23,6.56-2.6,9.63-4.28,.56,7.32,1.26,14.62,2.15,21.9,.99,8.09,2.01,16.3,4.16,24.18,.08,.28,.2,.51,.34,.71h3.61c.39-.48,.59-1.12,.37-1.9-2.09-7.67-3.11-15.66-4.06-23.54-.83-6.9-1.49-13.83-2.03-20.77,.1,.04,.19,.09,.3,.13,7.25,2.21,14.79,3.62,22.37,4.24-.01,.06-.03,.13-.04,.19-1.12,8.91-2.23,17.82-3.35,26.74l-.48,3.8c-.15,1.21,1.14,2.23,2.24,2.24,1.33,.01,2.09-1.04,2.24-2.24,1.12-8.91,2.23-17.82,3.35-26.74,.16-1.24,.31-2.48,.47-3.72,1.15,.05,2.3,.08,3.45,.09,.85,0,1.7-.01,2.55-.02,1.45,10.05,2.35,20.18,3.83,30.23,.18,1.21,1.69,1.84,2.75,1.56,1.29-.34,1.74-1.56,1.56-2.75-1.43-9.71-2.33-19.49-3.69-29.21,7.63-.49,15.19-1.97,22.24-4.96-.94,13.51-3.53,27.01-5.77,40.35-.25,1.46-.49,2.93-.75,4.39-.13,.78,.1,1.42,.51,1.9h3.55c.11-.2,.21-.43,.26-.71,2.1-12.08,4.06-24.2,5.64-36.36,.38-2.96,.75-5.93,.99-8.91,3,1.33,6.2,2.33,9.11,3.39,.01,0,.02,0,.03,.01-.73,.64-1.12,1.67-.59,2.78,1.6,3.32,3.13,6.68,4.5,10.1,.45,1.12,.86,2.24,1.23,3.39,0,.02,.03,.1,.06,.18,0,.05,0,.14-.01,.21-.17,.03-.93,.42-.98,.44-3.63,1.19-7.86,1.26-11.65,1.66-1.92,.2-3.41,3.18-1.13,4.17,4.2,1.82,8.5,3.52,12.64,5.49-1.72,3.91-3.43,7.82-5.15,11.73-.41,.92-.18,1.8,.32,2.44h3.44c.03-.06,.07-.11,.1-.18,2.04-4.65,4.08-9.3,6.12-13.95,.46-1.05,.37-2.47-.8-3.06-2.27-1.14-4.61-2.17-6.96-3.18,2.24-.26,4.61-.59,6.48-1.79,2.98-1.91,1.96-5.25,.92-7.92-1.45-3.73-3.09-7.4-4.81-11.02,5.37,2.28,10.59,5.16,15.37,8.42,4.58,3.13,7.34,8.66,9.58,13.57,2.77,6.1,4.81,12.57,6.32,19.09h4.35c.08-.32,.09-.67,0-1.06Zm-51.94-91.76c.01-.15,.07-.32,.05-.17,.03-.11,.06-.23,.1-.34,.05-.08,.09-.17,.14-.25,.03-.05,.06-.1,.09-.14,.1-.11,.2-.23,.32-.33,.01-.01,.04-.03,.06-.05,0,0,0,0,0,0,.09-.06,.21-.15,.34-.22,0,0,0,0,.02,0,.11-.03,.21-.07,.32-.1,.06-.02,.22-.05,.33-.07,.09,0,.19,0,.28,0,.07,0,.14,0,.21,0,.18,.04,.36,.09,.54,.15,.08,.04,.16,.08,.24,.13,.06,.04,.13,.08,.19,.12,0,0,0,0,0,0,.11,.11,.23,.21,.33,.33-.02-.03-.02-.04-.04-.08,.02,.03,.04,.07,.07,.1,0,0,0,0,0,0,.06,.06,.09,.12,.1,.15,0,0,0,0,0,0,.05,.08,.09,.16,.13,.24,.05,.16,.09,.32,.13,.48,0-.05,0-.09,0-.17,0,.06,0,.13,.01,.2,0,.02,.01,.04,.02,.06,0,.04,0,.06,.01,.09,0,.02,0,.03,0,.05,0,0,0,0-.01-.02,0,.03,0,.06,0,.09,0,.12-.01,.23-.01,.35,0,.01,0,.01,0,.02-.03,.1-.07,.2-.09,.27,0,.02-.02,.05-.02,.08-.05,.09-.11,.19-.17,.29,.06-.06,.05,.02-.05,.12-.02,.02-.04,.04-.06,.06-.02,.03-.04,.06-.05,.09,.02-.04,.03-.05,.04-.08-.04,.04-.08,.09-.12,.13-.05,.05-.1,.1-.15,.14,.04-.02,.05-.03,.11-.06-.05,.03-.09,.06-.14,.09-.07,.06-.15,.1-.17,.11-.05,.03-.1,.07-.16,.1-.05,.03-.1,.05-.14,.08-.16,.05-.31,.09-.47,.13,.05,0,.07,0,.14,0-.06,0-.12,0-.18,.01,0,0,0,0-.01,0-.11,.02-.2,.01-.19,0-.13,0-.25,0-.38-.01-.08-.02-.16-.04-.25-.06-.07-.02-.13-.04-.2-.06,.04,.02,.06,.03,.1,.06-.04-.02-.08-.04-.12-.07-.03-.01-.07-.02-.1-.03-.11-.04-.15-.08-.07-.06-.06-.03-.13-.06-.19-.1-.04-.02-.07-.05-.1-.07-.14-.13-.27-.27-.41-.41-.02-.04-.04-.08-.06-.11-.12-.2-.27-.74-.07-.06-.05-.18-.13-.35-.17-.53-.01-.05-.02-.11-.04-.16,0-.16-.01-.32,0-.48,0,.04-.02,.07-.03,.12,.01-.05,.02-.11,.03-.16Zm-63.8,.19s0,0-.01-.02c0,.03,0,.06,0,.09,0,.12-.01,.23-.01,.35,0,.01,0,.01,0,.02-.03,.1-.07,.2-.09,.27,0,.02-.02,.05-.02,.08-.05,.09-.11,.19-.17,.29,.06-.06,.05,.02-.05,.12-.02,.02-.04,.04-.06,.06-.02,.03-.04,.06-.05,.09,.02-.04,.03-.05,.04-.08-.04,.04-.08,.09-.12,.13-.05,.05-.1,.1-.15,.14,.04-.02,.05-.03,.11-.06-.05,.03-.09,.06-.14,.09-.07,.06-.15,.1-.17,.11-.05,.03-.1,.07-.16,.1-.05,.03-.1,.05-.14,.08-.16,.05-.31,.09-.47,.13,.05,0,.07,0,.14,0-.06,0-.12,0-.18,.01,0,0,0,0-.01,0-.11,.02-.2,.01-.19,0-.13,0-.25,0-.38-.01-.08-.02-.16-.04-.25-.06-.07-.02-.13-.04-.2-.06,.04,.02,.06,.03,.1,.06-.04-.02-.08-.04-.12-.07-.03-.01-.07-.02-.1-.03-.11-.04-.15-.08-.07-.06-.06-.03-.13-.06-.19-.1-.04-.02-.07-.05-.1-.07-.14-.13-.27-.27-.41-.41-.02-.04-.04-.08-.06-.11-.12-.2-.27-.74-.07-.06-.05-.18-.13-.35-.17-.53-.01-.05-.02-.11-.04-.16,0-.16-.01-.32,0-.48,0,.04-.02,.07-.03,.12,.01-.05,.02-.11,.03-.16,.01-.15,.07-.32,.04-.17,.03-.11,.06-.23,.1-.34,.05-.08,.09-.17,.14-.25,.03-.05,.06-.1,.09-.14,.1-.11,.2-.23,.32-.33,.01-.01,.04-.03,.06-.05,0,0,0,0,0,0,.09-.06,.21-.15,.34-.22,0,0,0,0,.02,0,.11-.03,.21-.07,.32-.1,.06-.02,.22-.05,.33-.07,.09,0,.19,0,.28,0,.07,0,.14,0,.21,0,.18,.04,.36,.09,.54,.15,.08,.04,.16,.08,.24,.13,.06,.04,.13,.08,.19,.12,0,0,0,0,0,0,.11,.11,.23,.21,.33,.33-.02-.03-.02-.04-.04-.08,.02,.03,.04,.07,.07,.1,0,0,0,0,0,0,.06,.06,.09,.12,.1,.15,0,0,0,0,0,0,.05,.08,.09,.16,.13,.24,.05,.16,.09,.32,.14,.48,0-.05,0-.09,0-.17,0,.06,0,.13,.01,.2,0,.02,.01,.04,.02,.06,0,.04,0,.06,.01,.09,0,.02,0,.03,0,.04Zm32.98,46.67c-9.63-.15-19.25-1.63-28.46-4.44-.16-.05-.31-.07-.45-.09,4.64-4,7.06-9.38,8.19-15.45,.44,.35,.87,.72,1.32,1.05,12.03,8.8,29.17,8.14,40.15-2.06,.86,4.98,1.68,10.14,4.6,14.29,.58,.83,1.24,1.57,1.96,2.25-8.57,3.56-18.11,4.58-27.31,4.44Z" fill="#2e2e2e"/><path d="M127.3,72.8c4.21,3.39,9.5,5.64,14.94,4.1,2.77-.78,1.59-5.11-1.19-4.32-1.99,.56-3.8,.45-5.83-.25-1.77-.6-3.7-1.81-5.17-3.05-1.57-1.32-3.16-3.01-4.26-4.5-.56-.76-1.08-1.54-1.54-2.36-.21-.36-.41-.73-.59-1.11-.09-.19-.18-.38-.27-.57-.03-.08-.07-.17-.1-.25-.43-1.13-1.51-1.91-2.75-1.56-1.08,.3-1.99,1.62-1.56,2.75,1.63,4.32,4.76,8.23,8.34,11.11Z" fill="#2e2e2e"/><path d="M137.22,108.74s.04-.06,.05-.09c0,0,0,0,0,.01-.02,.03-.03,.04-.04,.08Z" fill="#fff"/><path d="M137.67,106.99c0,.08,0,.12,0,.17,0,0,0,.02,0,.02,0-.07-.01-.13-.01-.2Z" fill="#fff"/><path d="M137.3,106.28s0,0,0,0c.04,.05,.07,.11,.11,.16-.01-.04-.04-.09-.1-.15Z" fill="#fff"/><path d="M137.33,108.59c.1-.1,.11-.18,.05-.12-.04,.06-.08,.12-.11,.19,.02-.02,.04-.04,.06-.06Z" fill="#fff"/><path d="M137.7,107.39s0-.03,0-.05c0-.03,0-.06-.01-.09,0-.02-.01-.04-.02-.06,0,.06,0,.12,0,.18,0,.02,0,.03,.01,.02Z" fill="#fff"/><path d="M134,108.47s.04,.07,.06,.11c.13,.14,.27,.28,.41,.41,.03,.02,.07,.05,.1,.07,.06,.04,.12,.07,.19,.1,.03,.01,.1,.04,.2,.1,.07,.02,.13,.04,.2,.06,.08,.02,.16,.04,.25,.06,.13,0,.25,.01,.38,.01,0,0,.1-.02,.25-.02,.16-.04,.31-.08,.47-.13,.05-.02,.1-.05,.14-.08,.05-.03,.1-.07,.16-.1-.02,0,.05-.04,.2-.13,.05-.05,.1-.09,.15-.14,.04-.04,.08-.08,.12-.13,.06-.11,.1-.17,.12-.2,.06-.1,.12-.19,.17-.29,0-.03,.02-.06,.02-.08,.02-.07,.06-.17,.09-.27,0,0,0-.01,0-.02,0-.12,.01-.23,.01-.35,0-.03,0-.06,0-.09,0-.03-.01-.1-.02-.2-.04-.16-.09-.32-.13-.48-.04-.08-.09-.16-.13-.24,0,0,0,0,0,0,.02,.06-.02,.03-.13-.19-.11-.11-.22-.22-.33-.33,0,0,0,0,0,0-.06-.04-.12-.08-.19-.12-.08-.05-.16-.08-.24-.13-.18-.05-.35-.1-.54-.15-.07,0-.14,0-.21,0-.09,0-.19,0-.28,0-.11,.02-.27,.05-.33,.07-.11,.03-.21,.07-.32,.1,0,0,0,0-.02,0-.12,.07-.25,.16-.34,.22,0,0,0,0,0,0-.02,.02-.05,.04-.06,.05-.11,.1-.21,.22-.32,.33-.03,.05-.06,.1-.09,.14-.05,.08-.09,.17-.14,.25-.04,.11-.07,.22-.1,.34,0,.04-.02,.11-.05,.21,0,.16,0,.32,0,.48,.01,.05,.02,.11,.04,.16,.05,.18,.12,.35,.17,.53-.2-.69-.05-.14,.07,.06Z" fill="#fff"/><path d="M135.06,109.32s-.07-.04-.1-.06c0,0-.01,0-.02,0,.04,.02,.08,.04,.12,.07Z" fill="#fff"/><path d="M135.78,109.39s.08,.02,.19,0c0,0,0,0,.01,0-.04,0-.07,0-.11,0-.03,0-.06,0-.1,0Z" fill="#fff"/><path d="M136.17,109.37c-.06,0-.09,0-.14,0-.02,0-.03,0-.05,.01,.06,0,.12-.02,.18-.01Z" fill="#fff"/><path d="M134.83,109.22s.07,.02,.1,.03c-.06-.03-.12-.06-.18-.09-.08-.02-.04,.03,.07,.06Z" fill="#fff"/><path d="M136.97,108.96c-.06,.04-.11,.07-.17,.11,.02,0,.1-.05,.17-.11Z" fill="#fff"/><path d="M133.76,107.03c.03-.15-.03,.02-.05,.17,0-.02,0-.04,.01-.06,0-.04,.02-.07,.03-.11Z" fill="#fff"/><path d="M133.72,107.2c0,.05-.02,.11-.03,.16,.01-.05,.02-.08,.03-.12,0,0,0-.01,0-.02,0,0,0-.01,0-.02Z" fill="#fff"/><path d="M136.97,108.96s.09-.06,.14-.09c-.05,.03-.07,.04-.11,.06,0,0,0,0,0,0,0,0-.02,.01-.02,.02Z" fill="#fff"/><path d="M137.22,106.17s.03,.05,.04,.08c0,0,.02,.02,.03,.03-.02-.03-.05-.07-.07-.1Z" fill="#fff"/><path d="M133.73,107.14s0,.04-.01,.06c0,0,0,.01,0,.02,0,0,0,.01,0,.02,.02-.1,.04-.17,.05-.21-.01,.04-.02,.07-.03,.11Z" fill="#2e2e2e"/><path d="M137.4,106.43c-.03-.05-.07-.11-.11-.16,0,0-.02-.02-.03-.03,.11,.22,.16,.25,.13,.19Z" fill="#2e2e2e"/><path d="M136.8,109.07c.06-.04,.11-.07,.17-.11,0,0,.02-.01,.02-.02,0,0,0,0,0,0-.15,.09-.22,.14-.2,.13Z" fill="#2e2e2e"/><path d="M134.93,109.25s.01,0,.02,0c-.1-.06-.16-.09-.2-.1,.06,.03,.12,.06,.18,.09Z" fill="#2e2e2e"/><path d="M137.68,107.19s0-.02,0-.02c0,.11,0,.18,.02,.2,0-.06,0-.12,0-.18Z" fill="#2e2e2e"/><path d="M137.27,108.65c.03-.06,.07-.12,.11-.19-.03,.03-.07,.09-.12,.2,0,0,0,0,0-.01Z" fill="#2e2e2e"/><path d="M135.88,109.39s.07,0,.11,0c.02,0,.03,0,.05-.01-.15,0-.24,0-.25,.02,.03,0,.06,0,.1,0Z" fill="#2e2e2e"/><path d="M67.99,109.39s.08,.02,.19,0c0,0,0,0,.01,0-.04,0-.07,0-.11,0-.03,0-.06,0-.1,0Z" fill="#fff"/><path d="M67.27,109.32s-.07-.04-.1-.06c0,0-.01,0-.02,0,.04,.02,.08,.04,.12,.07Z" fill="#fff"/><path d="M65.93,107.2c0,.05-.02,.11-.03,.16,.01-.05,.02-.08,.03-.12,0,0,0-.01,0-.02,0,0,0-.01,0-.02Z" fill="#fff"/><path d="M67.04,109.22s.07,.02,.1,.03c-.06-.03-.12-.06-.18-.09-.07-.02-.04,.03,.07,.06Z" fill="#fff"/><path d="M68.38,109.37c-.06,0-.09,0-.14,0-.02,0-.03,0-.05,.01,.06,0,.12-.02,.18-.01Z" fill="#fff"/><path d="M65.98,107.03c.03-.15-.03,.02-.04,.17,0-.02,0-.04,.01-.06,0-.04,.02-.07,.03-.11Z" fill="#fff"/><path d="M69.01,109.07s.1-.05,.17-.11c-.06,.04-.11,.07-.17,.11Z" fill="#fff"/><path d="M69.18,108.96s.09-.06,.14-.09c-.05,.03-.07,.04-.11,.06,0,0,0,0,0,0,0,0-.02,.01-.02,.02Z" fill="#fff"/><path d="M69.43,108.74s.04-.06,.05-.09c0,0,0,0,0,.01-.02,.03-.03,.04-.04,.08Z" fill="#fff"/><path d="M69.77,108.18s.02-.06,.02-.08c.02-.07,.06-.17,.09-.27,0,0,0-.01,0-.02,0-.12,.01-.23,.01-.35,0-.03,0-.06,0-.09,0-.03-.01-.1-.02-.2-.04-.16-.09-.32-.14-.48-.04-.08-.09-.16-.13-.24,0,0,0,0,0,0,.02,.06-.02,.03-.13-.19-.11-.11-.22-.22-.33-.33,0,0,0,0,0,0-.06-.04-.12-.08-.19-.12-.08-.05-.16-.08-.24-.13-.18-.05-.35-.1-.54-.15-.07,0-.14,0-.21,0-.09,0-.19,0-.28,0-.11,.02-.27,.05-.33,.07-.11,.03-.21,.07-.32,.1,0,0-.01,0-.02,0-.12,.07-.25,.16-.34,.22,0,0,0,0,0,0-.02,.02-.05,.04-.06,.05-.11,.1-.21,.22-.32,.33-.03,.05-.06,.1-.09,.14-.05,.08-.09,.17-.14,.25-.04,.11-.07,.22-.1,.34,0,.04-.02,.11-.05,.21,0,.16,0,.32,0,.48,.01,.05,.02,.11,.04,.16,.05,.18,.12,.35,.17,.53-.2-.69-.05-.14,.07,.06,.01,.02,.04,.07,.06,.11,.13,.14,.27,.28,.41,.41,.03,.02,.07,.05,.1,.07,.06,.04,.13,.07,.19,.1,.03,.01,.1,.04,.2,.1,.07,.02,.13,.04,.2,.06,.08,.02,.16,.04,.25,.06,.13,0,.25,.01,.38,.01,0,0,.1-.02,.25-.02,.16-.04,.31-.08,.47-.13,.05-.02,.1-.05,.14-.08,.05-.03,.1-.07,.16-.1-.02,0,.05-.04,.2-.13,.05-.05,.1-.09,.15-.14,.04-.04,.08-.08,.12-.13,.06-.11,.1-.17,.12-.2,.06-.1,.12-.19,.17-.29Z" fill="#fff"/><path d="M69.6,108.47c-.04,.06-.08,.12-.11,.19,.02-.02,.04-.04,.06-.06,.1-.1,.11-.18,.05-.12Z" fill="#fff"/><path d="M69.51,106.28s0,0,0,0c.04,.05,.07,.11,.11,.16-.01-.04-.04-.09-.1-.15Z" fill="#fff"/><path d="M69.88,106.99c0,.08,0,.12,0,.17,0,0,0,.02,0,.02,0-.07-.01-.13-.01-.2Z" fill="#fff"/><path d="M69.43,106.17s.03,.05,.04,.08c0,0,.02,.02,.03,.03-.02-.03-.05-.07-.07-.1Z" fill="#fff"/><path d="M69.91,107.38s0-.03,0-.04c0-.03,0-.06-.01-.09,0-.02-.01-.04-.02-.06,0,.06,0,.12,0,.18,0,.02,0,.03,.01,.02Z" fill="#fff"/><path d="M69.01,109.07c.06-.04,.11-.07,.17-.11,0,0,.02-.01,.02-.02,0,0,0,0,0,0-.15,.09-.22,.14-.2,.13Z" fill="#2e2e2e"/><path d="M68.09,109.39s.07,0,.11,0c.02,0,.03,0,.05-.01-.15,0-.24,0-.25,.02,.03,0,.06,0,.1,0Z" fill="#2e2e2e"/><path d="M67.15,109.25s.01,0,.02,0c-.1-.06-.16-.09-.2-.1,.06,.03,.12,.06,.18,.09Z" fill="#2e2e2e"/><path d="M65.94,107.14s0,.04-.01,.06c0,0,0,.01,0,.02,0,0,0,.01,0,.02,.02-.1,.04-.17,.05-.21,0,.04-.02,.07-.03,.11Z" fill="#2e2e2e"/><path d="M69.89,107.19s0-.02,0-.02c0,.11,0,.18,.02,.2,0-.06,0-.12,0-.18Z" fill="#2e2e2e"/><path d="M69.48,108.66s0,0,0-.01c.03-.06,.07-.12,.11-.19-.03,.03-.07,.09-.12,.2Z" fill="#2e2e2e"/><path d="M69.61,106.43c-.03-.05-.07-.11-.11-.16,0,0-.02-.02-.03-.03,.11,.22,.16,.25,.13,.19Z" fill="#2e2e2e"/><path d="M95.95,112.53s-.09,.01-.14,.01c-.05,0-.1,.01-.15,.02-.07,0-.13,.02-.2,.03-.04,0-.08,0-.11,.02-.04,.01-.06,.04-.1,.05-.21,.07-.42,.17-.6,.3-.07,.05-.13,.1-.19,.15-.47,.41-.79,1-.76,1.65,0,.17,.04,.34,.08,.5,0,.03,0,.06,0,.1,.66,3.92,3.25,7.4,7.13,8.57,3.33,1,7.23,0,9.53-2.65,1.6-1.85,2.36-4.09,2.55-6.51,.09-1.21-1.1-2.24-2.24-2.24h-14.81Zm8.2,7.31c.1-.02,.25-.05,.24-.04-.02,.03-.13,.04-.24,.04Zm3.16-1.76s-.05,.06-.07,.08c-.12,.13-.24,.26-.37,.38-.11,.11-.23,.21-.34,.31-.01,.01-.02,.02-.03,.03-.01,0-.02,0-.03,.02-.25,.16-.5,.32-.76,.46-.03,.02-.1,.06-.16,.09-.02,0-.03,0-.06,.01-.08,.02-.16,.06-.24,.08-.3,.1-.6,.18-.91,.24-.06,.01-.12,.02-.19,.03-.03,0-.03,0-.04,.01-.1,0-.21,0-.24,0-.3,.01-.59,0-.88-.02,0,0-.05,0-.09-.01-.15-.03-.29-.05-.44-.09-.29-.07-.56-.17-.84-.26,0,0,0,0-.02,0-.16-.08-.31-.16-.47-.24-.13-.08-.27-.16-.4-.24-.02-.01-.08-.05-.14-.1-.07-.05-.22-.17-.26-.21-.16-.14-.31-.28-.45-.43-.12-.13-.23-.29-.36-.41-.03-.05-.07-.09-.1-.14-.15-.21-.26-.44-.39-.66h8.91c-.04,.09-.08,.17-.13,.25-.15,.29-.35,.55-.52,.82Z" fill="#2e2e2e"/></g></g></svg>