<?xml version="1.0" encoding="UTF-8"?><svg id="b" xmlns="http://www.w3.org/2000/svg" width="200" height="200" xmlns:xlink="http://www.w3.org/1999/xlink" viewBox="0 0 200 200"><defs><clipPath id="d"><rect width="200" height="200" fill="none"/></clipPath><pattern id="e" x="0" y="0" width="25" height="25" patternTransform="translate(-6474.93 -11707.26) rotate(-90) scale(.32)" patternUnits="userSpaceOnUse" viewBox="0 0 25 25"><g><rect width="25" height="25" fill="none"/><rect x="24.29" y="24.29" width="26.43" height="26.43" fill="#fff"/><rect x="-.71" y="24.29" width="26.43" height="26.43" fill="#fff"/><rect x="-25.71" y="24.29" width="26.43" height="26.43" fill="#fff"/><g><rect x="24.29" y="-.71" width="26.43" height="26.43" fill="#fff"/><line x1="23.61" y1="12.5" x2="51.39" y2="12.5" fill="none" stroke="#33c8e7" stroke-miterlimit="10" stroke-width="5"/></g><g><rect x="-.71" y="-.71" width="26.43" height="26.43" fill="#fff"/><line x1="-1.39" y1="12.5" x2="26.39" y2="12.5" fill="none" stroke="#33c8e7" stroke-miterlimit="10" stroke-width="5"/></g><g><rect x="-25.71" y="-.71" width="26.43" height="26.43" fill="#fff"/><line x1="-26.39" y1="12.5" x2="1.39" y2="12.5" fill="none" stroke="#33c8e7" stroke-miterlimit="10" stroke-width="5"/></g><rect x="24.29" y="-25.71" width="26.43" height="26.43" fill="#fff"/><rect x="-.71" y="-25.71" width="26.43" height="26.43" fill="#fff"/><rect x="-25.71" y="-25.71" width="26.43" height="26.43" fill="#fff"/></g></pattern></defs><g id="c"><g clip-path="url(#d)"><path d="M104.23,119.72c.13,.22,.24,.45,.39,.66,.03,.05,.07,.09,.1,.14,.13,.12,.24,.28,.36,.41,.14,.15,.29,.29,.45,.43,.04,.04,.19,.15,.26,.21,.06,.04,.12,.08,.14,.1,.13,.08,.26,.16,.39,.24,.15,.09,.31,.16,.46,.24,0,0,0,0,.02,0,.28,.09,.55,.19,.84,.26,.14,.04,.29,.06,.44,.09,.04,0,.09,.01,.09,.01,.29,.02,.58,.03,.88,.02,.03,0,.13,0,.23,0,.02,0,0,0,.04-.01,.06-.01,.12-.02,.18-.03,.31-.06,.61-.14,.91-.24,.08-.03,.16-.06,.24-.08,.03,0,.04-.01,.06-.02,.06-.04,.12-.08,.16-.09,.26-.14,.51-.3,.76-.46,.01,0,.02-.01,.03-.02,.01,0,.01-.01,.03-.03,.11-.1,.23-.2,.34-.31,.13-.12,.24-.25,.36-.38,.02-.03,.05-.05,.07-.08,.17-.27,.36-.53,.52-.82,.04-.08,.09-.17,.13-.25h-8.88Z" fill="#fff"/><path d="M136.86,143.26c-6.71,3.54-13.55,6.84-20.39,10.11,1.24,1.88,2.48,3.76,3.72,5.63,.72,1.09,1.45,2.19,2.17,3.28,.19,.29,.37,.59,.58,.87,0,.01,.03,.04,.05,.06,.03,0,.46,.4,.64,.49,1.65,.79,3.3-1.32,4.37-2.25,3.46-3.01,6.93-6.01,10.39-9.02-.51-3.06-1.02-6.12-1.53-9.17Z" fill="url(#e)"/><path d="M109.56,122.51s-.14,.02-.24,.04c.11,0,.22-.01,.24-.04Z" fill="#fff"/><path d="M78.14,143.77c-.29,2.48-.58,4.96-.86,7.44-.05,.39-.17,.77-.35,1.1,.39,.06,.77,.23,1.13,.54,1.61,1.4,3.22,2.8,4.83,4.19,2.17,1.88,4.33,3.76,6.5,5.64,.52,.45,1.02,.96,1.57,1.37,.3,.22,.63,.38,1.01,.42,.38,.04,.76-.02,1.1-.2,.14-.07,.85-.77,.55-.39,1.31-1.67,2.38-3.6,3.55-5.37,1.14-1.72,2.27-3.44,3.41-5.16,.01-.02,.03-.04,.05-.06-2.3-.94-4.6-1.86-6.9-2.81-5.2-2.16-10.52-4.23-15.6-6.72Z" fill="url(#e)"/><path d="M35.62,103.08c-.11-.02-.33-.02,0,0h0Z" fill="#fff"/><path d="M31.86,100.23c.04,.08,.06,.12,0,0h0Z" fill="#fff"/><path d="M40.11,101.23c.06-.08,.12-.17,0,0h0Z" fill="#fff"/><path d="M33.47,70.71c-6.53-1.34-12.65,4.71-11.38,11.27,.33,1.7,1.07,3.34,2.23,4.63,.56,.62,1.18,1.2,1.88,1.66,.76,.5,1.85,.79,2.49,1.42,.7,.7,.85,2.01,1.09,2.92,.03,.1,.05,.2,.08,.3,3.07-.82,6.13-1.65,9.2-2.47-.27-.87-.51-1.75-.51-2.58,0-1.02,.81-1.71,1.3-2.53,.47-.76,.82-1.55,1.07-2.41,.49-1.71,.48-3.45,.05-5.17-1.02-3.58-3.84-6.28-7.5-7.03Z" fill="#33c8e7"/><path d="M40.93,97.06c-.04-.16-.08-.32-.13-.47-.17-.62-.33-1.24-.5-1.86-3.1,.83-6.2,1.67-9.3,2.5,.19,.72,.38,1.44,.58,2.15,.02,.08,.04,.16,.07,.24,.05,.17,.11,.33,.16,.5,0,.01,.02,.04,.03,.07,.13,.27,.27,.52,.43,.78,.08,.12,.16,.24,.24,.35,.02,.02,.03,.03,.07,.07,.23,.24,.46,.47,.71,.69,.02,.02,.03,.02,.04,.04,.01,0,.03,.01,.05,.03,.14,.09,.27,.18,.41,.27,.19,.12,.39,.22,.6,.31,.07,.03,.16,.07,.21,.08,.16,.05,.31,.1,.47,.14,.19,.05,.38,.09,.57,.13,0,0,0,0,.01,0,.3,.02,.6,.03,.91,.02,.14,0,.29-.02,.43-.03,.03,0,.05-.01,.1-.03,.27-.07,.55-.13,.81-.22,.08-.03,.33-.14,.35-.14,.11-.06,.23-.11,.34-.17,.23-.13,.45-.28,.67-.43,.04-.05,.39-.36,.46-.43,.12-.12,.22-.24,.33-.36,0,0,.02-.02,.03-.04,.18-.26,.35-.53,.5-.82,0,0,.08-.17,.13-.27,.04-.11,.11-.29,.11-.28,.08-.25,.13-.51,.2-.77,.01-.04,.02-.06,.03-.09,0,0,0,0,0-.01,.01-.17,.03-.33,.03-.5,0-.3,0-.6-.04-.89-.02-.07-.1-.49-.12-.56Z" fill="#fff"/><path d="M132.31,132.28c-3.84,5.05-8.82,8.96-14.9,11.16-7.39,2.68-15.4,1.65-22.45-1.54-4.71-2.12-8.63-5.23-11.75-9.14-.04,2.7-.09,5.4-.14,8.1,0,.11-.02,.21-.04,.31,4.03,1.83,8.17,3.47,12.23,5.15,4.46,1.85,8.94,3.68,13.43,5.47,.13,.05,.26,.11,.38,.18,7.91-3.81,15.89-7.56,23.7-11.61-.07-2.7-.27-5.39-.45-8.08Z" fill="#fff"/><path d="M138.79,157.98c-.82,.71-1.63,1.42-2.45,2.12-2.2,1.91-4.4,3.82-6.6,5.73-.63,.55-1.27,1.18-1.99,1.61-2.18,1.29-4.99,1.18-7.04-.32-2.01-1.47-3.32-4.26-4.66-6.3-1.21-1.84-2.43-3.68-3.64-5.52-.39,.19-.79,.38-1.18,.57-.03,.02-.07,.02-.1,.04,0,.01,0,.03,0,.04-.02,14.68,.26,29.36,.24,44.04h25.39c.04-.82,.07-1.63,.11-2.45,.59-13.19,1.12-26.39,1.91-39.57Z" fill="url(#e)"/><path d="M106.68,155.77c-.65-.26-1.3-.53-1.96-.8-.06,.21-.15,.43-.29,.65-1.51,2.29-3.02,4.58-4.53,6.87-1.49,2.25-2.83,5.09-5.52,6.06-2.3,.84-4.68,.24-6.52-1.3-.5-.42-.99-.86-1.49-1.29-3.17-2.75-6.33-5.5-9.5-8.25,.13,2.22,.26,4.43,.37,6.65,.61,11.88,1.15,23.76,1.68,35.64h27.99c.01-14.68-.26-29.36-.24-44.04,0-.07,.01-.12,.02-.19Z" fill="url(#e)"/><path d="M72.4,157.5c-1.98,1.16-3.96,2.32-5.94,3.48-1.03,3.38-2.05,6.77-3.08,10.15,1.33-.36,2.66-.71,3.99-1.07,2.78-.74,3.96,3.58,1.19,4.31-2.23,.59-4.45,1.19-6.68,1.79-1.66,.44-3.43,.76-5.02,1.41-1.88,.77-1.73,1.98-1.07,3.7,1.29,3.34,2.54,6.64,3.62,10.06,.91,2.9,1.78,5.84,2.92,8.67h12.13c-.04-.82-.07-1.63-.11-2.45-.6-13.35-1.13-26.71-1.94-40.05Z" fill="#33c8e7"/><path d="M144.01,90.42c-.79-1.36-2.46-2.68-3.71-1.27-1.32,1.49-3.22,.44-3.65-1.06-.26-.37-.43-.83-.5-1.32-.8-6.08-.69-12.21-.93-18.33-.17-4.39-2.01-9.48-6.68-10.69-1.23-.32-1.68-1.34-1.57-2.32-1.08-.57-2.16-1.07-3.26-1.47-.28-.03-.55-.11-.78-.24-2.5-.81-5.05-1.23-7.64-1.36-.8,1.26-2.87,1.75-3.85,.07-.02-.03-.04-.07-.06-.1-1.97,.07-3.95,.26-5.94,.51,.09,1.75-2.2,3.37-3.8,1.77-.36-.36-.71-.73-1.07-1.09-2.36,.36-4.72,.72-7.09,1.02,.04,1-.58,2.17-1.62,2.31-4.03,.54-6.18,2.95-7.34,6.75-.8,2.63-.7,5.37-.75,8.38-.09,4.95,.02,13.35-5.22,15.88-.29,1.62-2.32,2.86-3.7,1.29-1.3-1.47-3.06,.02-3.81,1.45-.97,1.85-1.11,4.16-.78,6.19,.64,4.05,3.78,6.57,7.56,7.78,1,.32,1.56,1.13,1.64,2.16,.56,7.06,1.38,14.15,5.16,20.3,3.48,5.64,8.32,9.55,14.56,11.81,6.32,2.29,13.15,2.33,19.26-.64,5.83-2.83,10.34-7.54,13.3-13.29,2.88-5.6,3.47-12,3.96-18.18,.08-1.02,.63-1.83,1.64-2.16,3.78-1.21,6.92-3.73,7.56-7.78,.33-2.09,.19-4.51-.88-6.37Zm-35.16,14.16c2.88,0,2.87,4.47,0,4.47s-2.87-4.47,0-4.47Zm-12.78-15.05c-2.88,0-2.87-4.47,0-4.47s2.87,4.47,0,4.47Zm1.65-8.37c-.18-.04-.36-.07-.54-.1-.56-.03-.21-.03-.04,0,.01,0,.03,0,.04,0,.02,0,.04,0,.07,0-.1,0-.21-.02-.32-.04-.94-.1-1.88-.12-2.83-.09-.47,.01-.94,.04-1.41,.09-.2,.02-.4,.04-.59,.06-.1,.02-.2,.03-.29,.05-.35,.06-.7,.13-1.05,.23-.16,.04-.32,.09-.48,.15-.17,.06-.18,.06-.13,.04-1.06,.43-2.2,.14-2.85-.86-.63-.97-.24-2.53,.8-3.06,1.78-.9,3.91-1.08,5.87-1.15,1.01-.04,2.02-.02,3.03,.09,1.01,.11,2.05,.24,2.99,.61,1.17,.46,1.85,1.46,1.56,2.75-.25,1.09-1.66,1.99-2.75,1.56-.35-.14-.72-.24-1.09-.32Zm17.88,42.83c-2.29,2.65-6.18,3.65-9.5,2.65-3.87-1.17-6.45-4.64-7.11-8.55,0-.03,0-.06,0-.1-.04-.16-.07-.33-.08-.5-.03-.65,.28-1.24,.76-1.65,.06-.06,.12-.1,.19-.15,.18-.13,.39-.23,.6-.3,.04-.01,.06-.04,.1-.05,.04,0,.08-.01,.11-.02,.06-.02,.13-.02,.2-.03,.05,0,.1-.01,.15-.02,.05,0,.09-.01,.14-.01h14.76c1.13,0,2.33,1.03,2.23,2.24-.19,2.42-.94,4.65-2.54,6.5Zm5.94-34.46c-2.88,0-2.87-4.47,0-4.47s2.87,4.47,0,4.47Zm7.46-8.84c-.56,1.06-1.86,1.28-2.88,.85,.05,.02,.09,.04,.09,.05-.04-.04-.18-.07-.23-.09-.14-.05-.29-.1-.44-.14-.36-.1-.74-.18-1.11-.24-.08-.01-.17-.03-.25-.04-.19-.02-.38-.04-.58-.06-.47-.04-.94-.07-1.41-.09-.96-.03-1.93,0-2.89,.1-.03,0-.07,0-.12,.01,0,0-.02,0-.03,0-.19,.03-.38,.07-.57,.11-.37,.08-.74,.18-1.09,.32-1.16,.46-2.41-.51-2.75-1.56-.4-1.23,.48-2.32,1.56-2.75,.95-.37,1.99-.5,2.99-.61,1-.11,2.02-.13,3.03-.09,1.96,.07,4.09,.25,5.87,1.15,1.11,.56,1.34,2.04,.8,3.06Z" fill="#fff"/><path d="M98.15,51.03c-.66-.66-1.34-1.32-2.04-1.95-.34-.31-.68-.61-1.03-.9-.21-.18-.43-.35-.65-.53-.04-.03-.07-.06-.09-.07-.02-.02-.06-.04-.11-.08-.74-.53-1.49-1.04-2.3-1.46-.16-.08-.33-.16-.49-.24-.03-.02-.05-.02-.06-.03-.03,0-.07-.02-.13-.04-.34-.11-.7-.18-1.04-.29-.01,0-.01,0-.02,0-.06,0-.11-.01-.17-.01-.14,0-.32,.02-.46,0-.03,0-.04,0-.06,0-.03,0-.06,.01-.09,.02-.14,.04-.29,.09-.44,.13,0,0,0,0-.01,0-.01,0-.01,.01-.03,.02-.12,.09-.26,.17-.39,.25-.06,.05-.2,.17-.23,.2-.06,.06-.57,.64-.28,.27-.74,.96-1.9,1.48-3.05,.8-.95-.55-1.54-2.1-.8-3.06,6.56-8.51,15.82,2.59,20.64,7.37,.44,.43,.62,.91,.65,1.39,1.99-.25,3.98-.43,5.94-.51-.87-1.49-1.73-2.99-2.68-4.43-.27-.42-.56-.83-.85-1.24-.12-.18-.25-.35-.38-.52,0,0-.14-.18-.2-.27-.56-.71-1.15-1.4-1.79-2.04-.32-.32-.65-.63-.99-.92-.05-.04-.33-.27-.37-.31-.13-.1-.26-.19-.39-.28-.36-.25-.73-.48-1.12-.68-.17-.09-.34-.17-.52-.26-.04-.02-.24-.1-.32-.13-1.74-.63-3.03-.64-4.73-.21-2.79,.71-3.97-3.61-1.19-4.31,4.6-1.16,8.92,.31,12.33,3.5,2.99,2.8,5.07,6.44,7.11,9.95,.47,.81,.38,1.59,0,2.19,2.59,.14,5.14,.55,7.64,1.36-.69-.39-1.15-1.17-1.19-1.97-.01-.25-.04-.5-.06-.75,0-.04,0-.05,0-.08,0-.03,0-.04-.02-.08-.07-.38-.14-.75-.23-1.12-.09-.37-.2-.74-.33-1.1-.07-.21-.15-.42-.23-.63-.02-.05-.04-.09-.05-.14,0-.01,0,0-.02-.04-.36-.72-.71-1.43-1.15-2.11-.18-.28-.37-.55-.57-.82-.06-.07-.22-.28-.26-.33-.12-.14-.24-.28-.37-.42-.49-.54-1.03-1.04-1.59-1.51-.06-.05-.14-.11-.17-.13-.16-.12-.33-.23-.5-.34-.31-.2-.63-.38-.96-.54-.06-.03-.23-.1-.29-.13-.08-.03-.16-.06-.23-.09-.3-.1-.61-.19-.92-.25-.1-.02-.2-.04-.31-.06,.1,.01,.19,.02,.29,.04-.09-.07-.42-.04-.54-.04-.33-.01-.66,0-.99,.04-1.24,.14-2.18-1.14-2.23-2.24-.06-1.3,1.08-2.11,2.23-2.24,3.57-.4,7.06,1.76,9.37,4.32,2.68,2.97,4.39,6.78,4.59,10.8,.06,1.25-1.07,2.18-2.23,2.24-.09,0-.17-.01-.26-.02,1.1,.39,2.18,.9,3.26,1.47,.15-1.23,1.2-2.39,2.75-1.99,5.94,1.54,9.04,7.21,9.78,12.96,.41,3.2,.26,6.49,.37,9.71,.09,2.69,.2,5.39,.45,8.07,.48-.09,.97-.11,1.46-.08,.49-2.86,.87-5.74,1.12-8.63,.57-6.48,.85-13.3-.61-19.69-1.03-4.54-3.29-9.46-8.5-8.68-1.2,.18-2.39-.3-2.75-1.56-1.14-4.08-3.51-7.47-7.17-9.65-6.76-4.01-15.48-3.82-23.03-3.03-3.84,.4-7.81,.94-11.55,1.96-4.21,1.15-8.09,5.43-8.01,9.92,.04,2.23-2.61,2.72-3.85,1.51-.36,.73-.63,1.57-.93,2.32,.14-.04,.26-.09,.4-.12,2.8-.61,3.99,3.7,1.19,4.31-5.19,1.14-6.29,8.61-6.53,13-.15,2.73,.25,5.36,.68,8.05,.55,3.42,1.13,6.83,1.61,10.26,.47,0,.93,.08,1.39,.21,.17-.09,.35-.16,.56-.21,1.06-.23,1.47-.59,2.04-1.7,.62-1.2,.91-2.72,1.09-4.1,.42-3.19,.31-6.44,.4-9.65,.2-7.25,3.24-15.04,11.31-16.13,1.19-.16,2.4,.27,2.75,1.56,.04,.14,.06,.29,.06,.44,2.37-.3,4.73-.66,7.09-1.02-.81-.83-1.61-1.66-2.42-2.48Z" fill="#fff"/><path d="M58.3,172.49c.86-2.85,1.67-5.73,2.53-8.58-2.14,.96-4.28,1.91-6.41,2.88-5.27,2.4-10.53,4.83-15.74,7.34-2.47,1.19-4.94,2.41-7.38,3.67-1.74,.9-3.44,1.59-4.64,3.07-2.97,3.64-4.38,8.77-5.64,13.2-.56,1.96-1.04,3.94-1.49,5.93H57.58c-1.01-2.76-1.87-5.58-2.76-8.38-.63-1.99-1.27-3.98-2.01-5.93-.69-1.83-1.66-3.57-1.92-5.54-.63-4.9,3.54-6.56,7.41-7.65Z" fill="#33c8e7"/><path d="M158.98,177.63c-1.57-.7-3.38-.99-5.04-1.43-2.28-.61-4.55-1.22-6.82-1.82-2.78-.74-1.59-5.05,1.19-4.31,1.33,.35,2.66,.71,3.99,1.07-1.03-3.38-2.05-6.77-3.08-10.15-1.98-1.16-3.95-2.31-5.93-3.47-.13,2.28-.27,4.57-.38,6.85-.61,11.88-1.15,23.76-1.68,35.64h11.05c2.63-6.05,4.93-12.25,7.46-18.34,.7-1.68,1.18-3.17-.76-4.03Z" fill="#33c8e7"/><path d="M188.21,179.77c-1.27-1.25-3.61-2.15-5.35-3.02-2.48-1.25-4.99-2.45-7.51-3.63-6.79-3.19-13.64-6.25-20.52-9.24,.86,2.86,1.68,5.75,2.54,8.6,1.83,.47,3.71,.97,5.21,2.14,1.92,1.49,2.55,3.71,2.12,6.05-.36,1.98-1.4,3.82-2.16,5.67-.79,1.92-1.55,3.85-2.31,5.78-1.04,2.63-2.08,5.27-3.17,7.89h38.44c-.49-2.62-1.1-5.22-1.79-7.78-1.11-4.09-2.37-9.37-5.5-12.44Z" fill="#33c8e7"/><path d="M121.54,85.05c-2.87,0-2.88,4.47,0,4.47s2.88-4.47,0-4.47Z" fill="#2e2e2e"/><path d="M96.07,85.05c-2.87,0-2.88,4.47,0,4.47s2.88-4.47,0-4.47Z" fill="#2e2e2e"/><path d="M97.18,81.06s-.03,0-.04,0c-.17-.03-.52-.02,.04,0Z" fill="#2e2e2e"/><path d="M101.55,79.92c.29-1.29-.39-2.29-1.56-2.75-.95-.37-1.99-.5-2.99-.61-1-.11-2.02-.13-3.03-.09-1.96,.07-4.09,.25-5.87,1.15-1.04,.53-1.43,2.09-.8,3.06,.65,1,1.79,1.3,2.85,.86-.04,.02-.03,.02,.13-.04,.16-.06,.32-.11,.48-.15,.35-.09,.7-.17,1.05-.23,.1-.02,.2-.03,.29-.05,.2-.02,.4-.05,.59-.06,.47-.04,.94-.07,1.41-.09,.94-.03,1.89,0,2.83,.09,.1,.01,.21,.03,.32,.04-.03,0-.04,0-.07,0,.18,.03,.36,.06,.54,.1,.37,.08,.74,.18,1.09,.32,1.09,.43,2.5-.47,2.75-1.56Z" fill="#2e2e2e"/><path d="M129,80.68c.54-1.02,.31-2.5-.8-3.06-1.78-.9-3.91-1.08-5.87-1.15-1.01-.04-2.02-.02-3.03,.09-1.01,.11-2.05,.24-2.99,.61-1.08,.43-1.96,1.52-1.56,2.75,.34,1.05,1.58,2.02,2.75,1.56,.35-.14,.72-.24,1.09-.32,.19-.04,.38-.08,.57-.11,0,0,.02,0,.03,0,.05,0,.09-.01,.12-.01,.96-.1,1.93-.13,2.89-.1,.47,.01,.94,.04,1.41,.09,.19,.02,.39,.04,.58,.06,.08,.01,.17,.03,.25,.04,.37,.06,.74,.14,1.11,.24,.15,.04,.3,.08,.44,.14,.05,.02,.19,.05,.23,.09,0,0-.05-.03-.09-.05,1.02,.43,2.33,.2,2.88-.85Z" fill="#2e2e2e"/><path d="M108.85,104.57c-2.87,0-2.88,4.47,0,4.47s2.88-4.47,0-4.47Z" fill="#2e2e2e"/><path d="M198.41,192.54c-1.22-4.84-2.68-10.15-5.65-14.25-2.82-3.89-8.07-5.65-12.26-7.66-5.46-2.62-10.97-5.12-16.5-7.58-3.24-1.44-6.48-2.87-9.73-4.27-.42-.18-.82-.22-1.2-.18-.89-1.52-3.04-2.32-4.48-3.17-1.95-1.14-3.9-2.29-5.85-3.43,.02-.2,.02-.41-.02-.63-.67-4.04-1.34-8.08-2.02-12.11-.25-1.48-2.13-1.96-3.28-1.34-.09,.05-.19,.1-.28,.15-.2-3.87-.56-7.72-.64-11.59,0-.31-.08-.61-.21-.89,2.38-5.42,3.23-11.33,3.75-17.28,2.14-.87,4.19-2.11,5.82-3.7,2.51-2.45,3.56-5.92,3.65-9.37,.08-3.29-.83-6.95-3.34-9.25-.05-.04-.1-.07-.15-.11,1.23-6.85,1.91-13.89,1.76-20.86-.14-6.41-.74-14.56-5.5-19.42-2.07-2.11-4.68-2.96-7.45-2.96-3.06-8.26-10.52-12.85-19.2-14.12-4.75-.69-9.54-.65-14.3-.18-4.54,.45-9.58,.9-13.92,2.4-5.73,1.98-10.65,7.75-10.55,14,.01,.65,.26,1.15,.62,1.51,.54-1.1,1.27-1.97,2.58-1.97-1.31,0-2.04,.87-2.58,1.97,1.23,1.21,3.88,.72,3.85-1.51-.07-4.5,3.81-8.77,8.01-9.92,3.73-1.02,7.71-1.56,11.54-1.96,7.55-.79,16.27-.98,23.03,3.03,3.66,2.18,6.03,5.57,7.17,9.65,.35,1.26,1.54,1.74,2.75,1.56,5.21-.78,7.47,4.14,8.5,8.68,1.45,6.39,1.18,13.21,.61,19.69-.25,2.89-.63,5.77-1.12,8.63-.49-.03-.98-.01-1.46,.08-.25-2.68-.37-5.38-.45-8.07-.1-3.22,.05-6.51-.36-9.71-.74-5.74-3.83-11.42-9.78-12.96-1.55-.4-2.6,.76-2.75,1.99,1.23,.64,2.44,1.37,3.64,2.27-1.2-.9-2.41-1.63-3.64-2.27-.12,.98,.33,2,1.57,2.32,4.67,1.21,6.51,6.3,6.68,10.69,.24,6.12,.13,12.25,.93,18.33,.06,.49,.23,.95,.5,1.32,.43,1.5,2.34,2.54,3.65,1.06,1.25-1.41,2.92-.09,3.71,1.27,1.08,1.86,1.21,4.29,.88,6.37-.64,4.05-3.78,6.57-7.56,7.78-1,.32-1.56,1.13-1.64,2.15-.49,6.18-1.09,12.58-3.96,18.18-2.95,5.75-7.46,10.47-13.29,13.29-6.11,2.97-12.94,2.93-19.26,.64-6.24-2.26-11.08-6.17-14.56-11.81-3.79-6.15-4.6-13.24-5.16-20.3-.08-1.03-.64-1.84-1.64-2.15-3.78-1.21-6.92-3.73-7.56-7.78-.32-2.03-.19-4.35,.78-6.19,.75-1.42,2.5-2.92,3.81-1.45,1.38,1.56,3.41,.32,3.7-1.29,5.24-2.53,5.13-10.94,5.22-15.88,.05-3.01-.06-5.74,.75-8.38,1.16-3.8,3.31-6.21,7.35-6.75,1.04-.14,1.66-1.31,1.62-2.31-.52,.07-1.03,.13-1.55,.19,.52-.06,1.03-.13,1.55-.19,0-.15-.02-.3-.06-.44-.34-1.3-1.56-1.72-2.75-1.56-8.07,1.09-11.11,8.88-11.31,16.13-.09,3.21,.02,6.46-.4,9.65-.18,1.38-.47,2.9-1.09,4.1-.57,1.1-.99,1.46-2.04,1.7-.21,.05-.39,.12-.56,.21-.46-.12-.92-.2-1.39-.21-.48-3.43-1.07-6.84-1.61-10.26-.43-2.69-.83-5.32-.68-8.05,.24-4.39,1.34-11.87,6.53-13,2.8-.61,1.62-4.92-1.19-4.31-.14,.03-.26,.08-.4,.12-.27,.67-.56,1.28-.95,1.67,.39-.39,.68-1,.95-1.67-6.53,1.73-8.64,9.59-9.27,15.51-.76,7.17,1.46,14.36,2.37,21.43-.16,.12-.32,.22-.47,.34-2.62,2.28-3.57,6.02-3.49,9.37,.08,3.36,1.09,6.75,3.47,9.19,1.64,1.68,3.78,2.98,5.99,3.88,.52,6.02,1.33,12.03,3.84,17.55-.06,.2-.1,.41-.11,.63-.09,4.19-.14,8.37-.22,12.56-.4-.21-.81-.39-1.21-.61-1.61-.87-3.16,.26-3.36,1.93-.42,3.62-.84,7.23-1.26,10.85-.03,.28,.02,.55,.12,.81-1.94,1.14-3.89,2.28-5.83,3.41-1.44,.85-3.58,1.65-4.47,3.16-.38-.04-.79,0-1.21,.19-8.04,3.55-16.04,7.2-23.97,11-2.59,1.24-5.17,2.5-7.73,3.81-1.94,.99-4.07,1.9-5.64,3.46-3.52,3.52-5.26,8.93-6.7,13.57-.96,3.08-1.78,6.22-2.44,9.38h4.58c.45-1.99,.93-3.97,1.49-5.93,1.26-4.44,2.67-9.56,5.64-13.2,1.2-1.47,2.9-2.16,4.64-3.07,2.44-1.26,4.91-2.48,7.38-3.67,5.22-2.52,10.47-4.95,15.74-7.34,2.13-.97,4.27-1.92,6.41-2.88-.86,2.86-1.67,5.74-2.53,8.58-3.87,1.09-8.04,2.75-7.41,7.65,.25,1.97,1.22,3.71,1.92,5.54,.74,1.95,1.38,3.94,2.01,5.93,.89,2.8,1.75,5.62,2.76,8.38h4.74c-1.14-2.82-2-5.77-2.92-8.67-1.08-3.42-2.33-6.72-3.62-10.06-.66-1.72-.81-2.94,1.07-3.7,1.6-.65,3.36-.97,5.02-1.41,2.23-.6,4.45-1.2,6.68-1.79,2.77-.73,1.6-5.05-1.19-4.31-1.33,.35-2.66,.71-3.99,1.07,1.03-3.38,2.05-6.77,3.08-10.15,1.98-1.16,3.96-2.32,5.94-3.48,.81,13.34,1.34,26.7,1.94,40.05,.04,.82,.07,1.63,.11,2.45h4.46c-.52-11.88-1.07-23.76-1.68-35.64-.11-2.22-.25-4.43-.37-6.65,3.17,2.75,6.33,5.5,9.5,8.25,.5,.43,.98,.87,1.49,1.29,1.84,1.54,4.22,2.13,6.52,1.3,2.69-.98,4.04-3.81,5.52-6.06,1.51-2.29,3.02-4.58,4.54-6.87,.14-.22,.23-.43,.29-.65,.65,.26,1.3,.54,1.96,.8,0,.06-.02,.12-.02,.19-.02,14.68,.26,29.36,.24,44.04h4.46c.01-14.68-.26-29.36-.24-44.04,0-.01,0-.03,0-.04,.03-.01,.07-.02,.1-.04,.39-.19,.79-.38,1.18-.57,1.21,1.84,2.43,3.68,3.64,5.52,1.34,2.03,2.65,4.83,4.66,6.3,2.05,1.49,4.86,1.61,7.04,.32,.72-.42,1.36-1.06,1.99-1.61,2.2-1.91,4.4-3.82,6.6-5.73,.82-.71,1.63-1.42,2.45-2.12-.79,13.18-1.32,26.38-1.91,39.57-.04,.82-.07,1.63-.11,2.45h4.46c.52-11.88,1.07-23.76,1.68-35.64,.12-2.28,.25-4.57,.38-6.85,1.98,1.16,3.95,2.31,5.93,3.47,1.03,3.38,2.05,6.77,3.08,10.15-1.33-.36-2.66-.71-3.99-1.07-2.78-.74-3.97,3.58-1.19,4.31,2.28,.6,4.55,1.22,6.82,1.82,1.66,.44,3.47,.74,5.04,1.43,1.93,.85,1.45,2.34,.76,4.03-2.53,6.09-4.83,12.29-7.46,18.34h4.79c1.08-2.62,2.13-5.25,3.17-7.89,.76-1.93,1.52-3.86,2.31-5.78,.76-1.85,1.8-3.69,2.16-5.67,.42-2.34-.21-4.56-2.12-6.05-1.5-1.17-3.38-1.67-5.21-2.14-.86-2.86-1.68-5.74-2.54-8.6,6.88,2.99,13.73,6.05,20.52,9.24,2.52,1.18,5.02,2.39,7.51,3.63,1.74,.87,4.08,1.78,5.35,3.02,3.13,3.07,4.4,8.36,5.5,12.44,.69,2.56,1.3,5.17,1.79,7.78h4.49c-.44-2.51-.96-5-1.59-7.46Zm-97.83-39.18c-1.14,1.72-2.27,3.44-3.41,5.16-1.17,1.77-2.24,3.7-3.55,5.37,.3-.38-.42,.32-.55,.39-.34,.17-.73,.24-1.1,.2-.38-.04-.71-.2-1.01-.42-.55-.4-1.06-.92-1.57-1.37-2.17-1.88-4.33-3.76-6.5-5.64-1.61-1.4-3.22-2.8-4.83-4.19-.36-.31-.74-.47-1.13-.54,.18-.33,.3-.71,.35-1.1,.29-2.48,.58-4.96,.86-7.44,5.08,2.49,10.4,4.56,15.6,6.72,2.29,.95,4.6,1.87,6.9,2.81-.02,.02-.03,.04-.05,.06Zm8.48-1.39c-.12-.07-.25-.13-.38-.18-4.49-1.79-8.96-3.62-13.42-5.47-4.06-1.68-8.2-3.32-12.23-5.15,.02-.1,.03-.2,.04-.31,.06-2.7,.1-5.4,.14-8.1,3.12,3.91,7.04,7.02,11.75,9.14,7.05,3.18,15.06,4.21,22.45,1.54,6.08-2.2,11.06-6.11,14.9-11.16,.18,2.69,.37,5.38,.45,8.08-7.81,4.05-15.78,7.8-23.7,11.61Zm18.93,9.48c-1.08,.94-2.72,3.05-4.37,2.25-.18-.09-.61-.48-.64-.49-.02-.02-.04-.05-.05-.06-.2-.28-.38-.58-.58-.87-.72-1.09-1.45-2.19-2.17-3.28-1.24-1.88-2.48-3.76-3.72-5.63,6.84-3.27,13.69-6.57,20.39-10.11,.51,3.06,1.02,6.12,1.53,9.17-3.46,3.01-6.93,6.01-10.39,9.02Z" fill="#2e2e2e"/><path d="M123.98,53.98c1.16-.05,2.29-.98,2.23-2.24-.2-4.02-1.91-7.82-4.59-10.8-2.31-2.56-5.8-4.72-9.37-4.32-1.16,.13-2.29,.94-2.23,2.24,.05,1.1,.99,2.37,2.23,2.24,.33-.04,.66-.05,.99-.04,.11,0,.45-.03,.54,.04-.1-.01-.19-.02-.29-.04,.1,.02,.2,.04,.31,.06,.31,.07,.62,.15,.92,.25,.08,.03,.16,.06,.23,.09,.06,.03,.22,.1,.29,.13,.33,.16,.65,.34,.96,.54,.17,.11,.34,.22,.5,.34,.04,.02,.11,.08,.17,.13,.56,.47,1.1,.96,1.59,1.51,.13,.14,.25,.28,.37,.42,.04,.05,.2,.26,.26,.33,.2,.27,.39,.54,.57,.82,.44,.68,.78,1.39,1.15,2.11,.02,.03,.01,.03,.02,.04,.02,.05,.04,.09,.05,.14,.08,.21,.16,.42,.23,.63,.12,.36,.23,.73,.33,1.1,.09,.37,.16,.75,.23,1.12,0,.04,.01,.06,.02,.08,0,.02,0,.04,0,.08,.02,.25,.04,.5,.06,.75,.04,.81,.5,1.59,1.19,1.97,.26,.08,.52,.15,.78,.24,.09,0,.17,.02,.26,.02Z" fill="#2e2e2e"/><path d="M122.94,53.72c.24,.13,.5,.22,.78,.24-.26-.09-.52-.16-.78-.24Z" fill="#2e2e2e"/><path d="M111.39,52.32s.04,.07,.06,.1c.98,1.68,3.05,1.19,3.85-.07-1.29-.07-2.6-.08-3.91-.03Z" fill="#2e2e2e"/><path d="M115.3,52.36c.38-.6,.47-1.38,0-2.19-2.04-3.51-4.12-7.15-7.11-9.95-3.41-3.19-7.73-4.67-12.33-3.5-2.78,.7-1.6,5.02,1.19,4.31,1.7-.43,2.99-.43,4.73,.21,.08,.03,.28,.12,.32,.13,.17,.08,.35,.17,.52,.26,.38,.21,.76,.44,1.12,.68,.13,.09,.26,.19,.39,.28,.04,.03,.32,.27,.37,.31,.34,.29,.67,.6,.99,.92,.64,.64,1.23,1.33,1.79,2.04,.07,.09,.2,.26,.2,.27,.13,.17,.25,.35,.38,.52,.29,.41,.57,.82,.85,1.24,.95,1.44,1.81,2.94,2.68,4.43,1.31-.05,2.61-.04,3.91,.03Z" fill="#2e2e2e"/><path d="M84.16,44.07c-.74,.96-.15,2.5,.8,3.06,1.15,.68,2.31,.16,3.05-.8-.29,.37,.22-.21,.28-.27,.04-.04,.17-.15,.23-.2,.13-.08,.27-.16,.39-.25,.01-.01,.02-.02,.03-.02,0,0,0,0,.01,0,.15-.04,.29-.08,.44-.13,.03,0,.06-.01,.09-.02,.02,0,.03,0,.06,0,.14,.02,.32,0,.46,0,.06,0,.11,0,.17,.01,0,0,.01,0,.02,0,.34,.11,.7,.18,1.04,.29,.06,.02,.1,.03,.13,.04,.02,0,.03,.02,.06,.03,.16,.08,.33,.16,.49,.24,.81,.42,1.56,.93,2.3,1.46,.05,.04,.08,.06,.11,.08,.02,.02,.05,.04,.09,.07,.22,.17,.43,.35,.65,.53,.35,.29,.69,.59,1.03,.9,.7,.63,1.37,1.28,2.04,1.95,.82,.82,1.62,1.65,2.42,2.48,1.63-.25,3.26-.48,4.87-.68-.02-.47-.21-.96-.65-1.39-4.82-4.78-14.08-15.88-20.64-7.37Z" fill="#2e2e2e"/><path d="M101.64,54.6c1.61,1.59,3.89-.02,3.8-1.77-1.62,.2-3.24,.43-4.87,.68,.35,.37,.71,.73,1.07,1.09Z" fill="#2e2e2e"/><path d="M45.27,76.55c-2.09-7.36-9.67-11.92-17.14-10.04-7.42,1.86-12,9.62-10.26,17.03,.94,3.99,3.7,7.42,7.34,9.27,.31,1.14,.61,2.29,.92,3.43,.39,1.44,.77,2.89,1.16,4.33,.82,3.01,2.95,5.35,5.85,6.45,3.2,1.21,6.87,.37,9.39-1.87,2.55-2.26,3.54-5.91,2.73-9.18-.38-1.53-.82-3.05-1.22-4.58-.28-1.04-.56-2.09-.84-3.13,2.31-3.47,3.11-7.54,2.08-11.71Zm-13.42,23.68c.03,.06,.04,.08,.04,.08,0,0,0-.01-.04-.08Zm3.76,2.85c-.33-.02-.11-.02,0,0h0Zm4.49-1.86c.12-.17,.06-.08,0,0h0Zm.95-2.21s0,0,0,.01c0,.03-.01,.05-.03,.09-.07,.26-.12,.51-.2,.77,0,0-.07,.17-.11,.28-.05,.11-.13,.28-.13,.27-.15,.28-.32,.55-.5,.82,0,.01-.02,.03-.03,.04-.11,.12-.22,.25-.33,.36-.07,.07-.43,.38-.46,.43-.21,.16-.44,.3-.67,.43-.11,.06-.22,.12-.34,.17-.02,0-.28,.12-.35,.14-.27,.09-.54,.15-.81,.22-.06,.01-.07,.02-.1,.03-.14,.02-.29,.03-.43,.03-.3,.01-.61,0-.91-.02,0,0,0,0-.01,0-.19-.04-.38-.08-.57-.13-.16-.04-.32-.09-.47-.14-.05-.01-.14-.05-.21-.08-.2-.1-.4-.2-.6-.31-.14-.08-.28-.18-.41-.27-.03-.02-.04-.03-.05-.03-.01-.01-.02-.02-.04-.04-.25-.22-.48-.45-.71-.69-.04-.04-.05-.05-.07-.07-.08-.11-.17-.23-.24-.35-.16-.25-.3-.51-.43-.78-.01-.02-.02-.05-.03-.07-.05-.17-.11-.33-.16-.5-.02-.08-.04-.16-.07-.24-.19-.72-.39-1.44-.58-2.15,3.1-.83,6.2-1.67,9.3-2.5,.17,.62,.33,1.24,.5,1.86,.04,.16,.09,.31,.13,.47,.02,.07,.1,.5,.12,.56,.03,.3,.05,.6,.04,.89,0,.17-.02,.33-.03,.5Zm-.14-16.1c-.25,.86-.6,1.65-1.07,2.41-.5,.81-1.3,1.5-1.3,2.53,0,.83,.23,1.71,.51,2.58-3.07,.83-6.13,1.65-9.2,2.47-.03-.1-.05-.2-.08-.3-.25-.92-.39-2.22-1.09-2.92-.63-.63-1.73-.93-2.49-1.42-.7-.46-1.32-1.03-1.88-1.66-1.16-1.29-1.9-2.93-2.23-4.63-1.27-6.56,4.84-12.61,11.38-11.27,3.66,.75,6.48,3.45,7.5,7.03,.43,1.73,.44,3.46-.05,5.17Z" fill="#2e2e2e"/><path d="M20.98,51.77c-.05-.24-.11-.48-.16-.72-.26-1.14-1.63-1.92-2.75-1.56-1.19,.39-1.84,1.53-1.56,2.75,.38,1.69,.77,3.38,1.15,5.07,.05,.24,.11,.48,.16,.72,.26,1.14,1.63,1.92,2.75,1.56,1.19-.39,1.84-1.53,1.56-2.75-.38-1.69-.77-3.38-1.15-5.07Z" fill="#2e2e2e"/><path d="M9.42,56.69c-.2-.2-.39-.39-.59-.59-.4-.41-1.01-.65-1.58-.65s-1.2,.24-1.58,.65c-.39,.43-.68,.99-.65,1.58,.03,.59,.23,1.15,.65,1.58,1.37,1.37,2.74,2.75,4.11,4.12l.59,.59c.4,.41,1.01,.65,1.58,.65s1.2-.24,1.58-.65c.39-.43,.68-.99,.65-1.58-.03-.59-.23-1.15-.65-1.58-1.37-1.37-2.74-2.75-4.11-4.12Z" fill="#2e2e2e"/><path d="M7.84,67.85c-1.46-.26-2.93-.52-4.39-.78-.21-.04-.42-.07-.63-.11-.6-.11-1.17-.1-1.72,.23-.46,.27-.9,.8-1.03,1.34-.13,.57-.1,1.21,.23,1.72,.3,.46,.77,.93,1.33,1.03,1.46,.26,2.93,.52,4.39,.78,.21,.04,.42,.07,.63,.11,.6,.11,1.17,.1,1.72-.23,.46-.27,.9-.8,1.03-1.34,.13-.57,.1-1.21-.23-1.72-.3-.46-.77-.93-1.33-1.03Z" fill="#2e2e2e"/><path d="M98.99,118.08c.66,3.91,3.24,7.38,7.11,8.55,3.32,1,7.21,0,9.5-2.65,1.6-1.85,2.35-4.08,2.54-6.5,.09-1.21-1.1-2.24-2.23-2.24h-14.76s-.09,.01-.14,.01c-.05,0-.1,.01-.15,.02-.07,0-.13,.02-.2,.03-.04,0-.08,0-.11,.02-.04,.01-.06,.04-.1,.05-.21,.07-.41,.17-.6,.3-.07,.05-.13,.1-.19,.15-.47,.41-.79,1-.76,1.65,0,.17,.04,.34,.08,.5,0,.03,0,.06,0,.1Zm10.33,4.47c.1-.02,.25-.05,.24-.04-.02,.03-.13,.04-.24,.04Zm3.15-1.75s-.05,.06-.07,.08c-.12,.13-.24,.26-.36,.38-.11,.11-.22,.2-.34,.31-.01,.01-.02,.02-.03,.03-.01,0-.02,0-.03,.02-.25,.16-.5,.32-.76,.46-.03,.02-.1,.06-.16,.09-.02,0-.03,0-.06,.02-.08,.02-.16,.06-.24,.08-.3,.1-.6,.18-.91,.24-.06,.01-.12,.02-.18,.03-.03,0-.03,0-.04,.01-.1,0-.2,0-.23,0-.29,.01-.58,0-.88-.02,0,0-.05,0-.09-.01-.15-.03-.29-.05-.44-.09-.29-.07-.56-.17-.84-.26,0,0,0,0-.02,0-.16-.08-.31-.16-.46-.24-.13-.08-.27-.16-.39-.24-.02-.01-.08-.05-.14-.1-.07-.05-.22-.17-.26-.21-.16-.14-.31-.28-.45-.43-.12-.13-.23-.28-.36-.41-.03-.05-.07-.09-.1-.14-.14-.21-.26-.44-.39-.66h8.88c-.04,.09-.08,.17-.13,.25-.15,.29-.35,.55-.52,.82Z" fill="#2e2e2e"/></g></g></svg>