<?xml version="1.0" encoding="UTF-8"?><svg id="b" xmlns="http://www.w3.org/2000/svg" width="200" height="200" xmlns:xlink="http://www.w3.org/1999/xlink" viewBox="0 0 200 200"><defs><clipPath id="d"><rect width="200" height="200" fill="none"/></clipPath></defs><g id="c"><g clip-path="url(#d)"><path d="M101.62,138.06v-2.65c0-.61,.25-1.16,.66-1.6,.41-.44,1.01-.64,1.59-.66,.56-.03,1.2,.27,1.59,.66,.41,.41,.66,1.02,.66,1.6v3.45c.3,.03,.6,.03,.9,.04v-3.49c0-.61,.25-1.16,.66-1.6,.41-.44,1.01-.64,1.59-.66,.56-.03,1.2,.27,1.59,.66,.41,.41,.66,1.02,.66,1.6v3.41c.3-.03,.6-.08,.9-.12v-3.29c0-.61,.25-1.16,.66-1.6,.4-.44,1.01-.64,1.59-.66,.56-.03,1.2,.27,1.59,.66,.41,.41,.66,1.02,.66,1.6v2.24c1.28-.43,2.55-.93,3.77-1.58,10.76-5.69,15.41-17.13,17.2-28.58,.12-.75,.88-1.38,1.57-1.58,1.91-.54,4.33-.87,6.04-1.88,2.35-1.4,3.43-5.51,3.52-8.05,.08-2.36-.97-6.32-3.73-6.76-.72-.11-1.43,0-2.12,.18-.3,.08-.58,.19-.88,.29-2.1,.94-3.94-1.47-3.1-3.07-.19-.57-.37-1.13-.55-1.7-.24,.03-.48,.02-.71-.06-.2-.03-.39-.07-.59-.1-.8-.13-1.59-.27-2.39-.4-.15,5.11-3.95,10.05-8.89,11.36-4.77,1.27-9.47-1.21-12.13-5.17-.8-1.2-1.39-2.58-1.71-4h-5.56c-1.04,4.32-4.61,8.03-8.89,9.15-4.95,1.3-9.88-1.12-12.73-5.2-1.21-1.73-1.94-3.85-2.02-5.94-1.58,.17-3.17,.34-4.75,.51-.22,.59-.41,1.2-.64,1.78-.35,.89-1.02,1.5-1.87,1.62-.63,.64-1.58,.9-2.57,.28-1.99-1.26-4.07-.35-4.98,1.7-.97,2.19-.86,4.95-.35,7.24,.55,2.47,1.51,4.41,3.78,5.67,1.49,.82,3.21,1.34,4.89,1.58,.69,.1,1.46,.9,1.57,1.58,1.1,7.06,2.81,14.2,6.94,20.15,3.95,5.69,10,9.68,16.6,11.37Zm8.66-37.11c2.9,0,2.89,4.52,0,4.52s-2.89-4.52,0-4.52Zm-9.98,12.05c.06-.06,.12-.11,.19-.15,.18-.13,.39-.23,.6-.31,.04-.01,.06-.04,.1-.05,.04,0,.08-.01,.11-.02,.07-.02,.13-.02,.2-.03,.05,0,.1-.01,.15-.02,.05,0,.09-.01,.14-.01h14.87c1.14,0,2.34,1.04,2.25,2.26-.19,2.44-.95,4.7-2.56,6.57-2.3,2.68-6.22,3.69-9.57,2.67-3.9-1.18-6.49-4.69-7.16-8.64,0-.03,0-.06,0-.1-.04-.16-.07-.33-.08-.5-.03-.65,.29-1.25,.76-1.67Z" fill="#fff"/><path d="M89.57,89.01c2.11,2.25,5.22,3.22,8,2.02,1.44-.62,2.71-1.71,3.53-2.91,.44-.65,.87-1.45,1.03-1.99,.27-.88,.33-1.14,.34-1.91,0-.1-.03-.49-.04-.62-.03-.1-.11-.45-.1-.41,0-.01-.13-.37-.13-.4-.05-.09-.09-.19-.14-.28-.32-.57-.74-.98-1.14-1.25-1.39-.93-3.06-1.34-4.77-1.45-1.77-.11-3.36-.02-5.01,.47-.81,.24-1.18,.38-1.93,.86-.1,.07-.21,.14-.31,.21-.05,.04-.19,.16-.23,.19-.07,.07-.49,.52-.49,.5-.11,.15-.22,.32-.31,.48,.01-.03-.14,.31-.18,.38-.03,.11-.12,.43-.17,.65,0,.06-.04,.26-.04,.32,0,.2-.01,.4,0,.61,0,.13,.01,.26,.03,.39,.01,.06,.04,.28,.06,.33,.34,1.46,.98,2.74,2.02,3.84Zm5.78-7.45c2.9,0,2.89,4.52,0,4.52s-2.89-4.52,0-4.52Z" fill="#fff"/><path d="M137.08,80.17c-.94-2.93-1.85-5.87-2.7-8.82-.93-3.2-1.24-6.52-2.19-9.7-.73-2.45-1.78-4.89-3.16-7.08-2.28,.89-4.61,1.67-6.96,2.31-3.96,1.07-9.08,2.39-13.05,.74-.83-.34-1.36-.92-1.54-1.63-4.06,1.64-8.36,2.81-12.43,3.74-2.01,.46-3.36-1.53-2.54-3.32,.21-.46,.42-.92,.63-1.38-3.39,2.95-6.78,5.9-10.15,8.87,.25,4.55-.98,9.2-2.23,13.52-.29,.99-.61,1.97-.91,2.96,1.41-.15,2.82-.3,4.23-.46,.03,0,.05,0,.08,0,.34-.55,.74-1.07,1.24-1.54,1.57-1.49,3.58-2.35,5.71-2.79-.76-.22-1.42-.91-1.65-1.62-.17-.54-.06-1.26,.23-1.74,.32-.55,.78-.8,1.34-1.04,1.51-.63,3.25-.8,4.87-.85,1.85-.05,3.76,.15,5.54,.64,1.21,.33,1.84,1.59,1.57,2.78-.27,1.19-1.63,1.89-2.77,1.58-.39-.11-.78-.2-1.18-.27-.13-.02-.53-.02-.63-.1-.05,0-.11-.01-.16-.02-.79-.08-1.58-.11-2.38-.09-.41,.01-.81,.03-1.22,.07-.04,0-.15,.02-.25,.03-.1,.02-.29,.05-.35,.06-.4,.07-.78,.17-1.17,.29,1.96-.19,3.96-.07,5.77,.27,3.69,.69,6.93,2.93,7.94,6.44h5.58c.34-1.35,1.01-2.62,2.09-3.67,3.21-3.15,8.41-3.58,12.61-2.79,2.76,.52,5.2,1.96,6.65,4.11,0,0,.01,0,.02,0,.3-.07,.6-.05,.9,.04,.2,.03,.39,.07,.59,.1,.68,.11,1.35,.23,2.03,.34Zm-7.13-6.18c-.12,.54-.57,1.08-1.03,1.35-.44,.26-1.23,.44-1.73,.23-.61-.26-1.26-.42-1.91-.54-.07-.01-.15-.02-.22-.04-.13-.01-.26-.03-.39-.04-.38-.04-.76-.06-1.15-.07-.82-.02-1.64,.01-2.45,.1-.06,0-.13,.01-.19,.02-.2,.03-.4,.06-.6,.1-.37,.07-.74,.16-1.11,.26-1.22,.33-2.39-.41-2.76-1.58-.37-1.16,.44-2.47,1.57-2.78,1.79-.49,3.69-.69,5.54-.64,1.62,.04,3.36,.21,4.87,.85,.57,.24,1,.51,1.34,1.04,.33,.51,.36,1.16,.23,1.74Z" fill="#fff"/><path d="M118.29,88.92c1.06,1.21,2.18,2.02,3.59,2.42,1.36,.38,2.86,.24,4.08-.37,1.36-.68,2.46-1.69,3.23-2.91,.8-1.26,1.24-2.6,1.26-3.85,0-.08-.06-.72-.04-.65-.02-.11-.04-.22-.07-.33-.04-.16-.09-.31-.15-.47-.03-.05-.15-.33-.17-.36-.09-.15-.18-.3-.28-.44-.03-.04-.06-.08-.08-.1-.16-.18-.34-.35-.52-.51-.03-.03-.11-.09-.17-.13-1.25-.87-2.76-1.29-4.21-1.4-1.83-.15-3.29-.06-4.94,.44-.75,.23-1.05,.37-1.83,.86-.06,.04-.09,.06-.12,.08-.14,.11-.28,.24-.41,.36-.1,.1-.19,.2-.29,.3-.03,.03-.05,.05-.07,.07,0,.01,0,.02-.02,.04-.14,.2-.25,.41-.37,.62,0,.02-.02,.05-.04,.08-.11,.31-.2,.62-.26,.94,0,.05-.01,.11-.01,.13,0,.24-.02,.47-.01,.7,0,.12,.01,.23,.02,.35,0,.05,.03,.26,.04,.32,.31,1.48,.92,2.76,1.82,3.8Zm5.48-7.35c2.9,0,2.89,4.52,0,4.52s-2.89-4.52,0-4.52Z" fill="#fff"/><path d="M104.89,116.93c.13,.23,.24,.46,.39,.67,.03,.05,.07,.1,.1,.14,.13,.12,.24,.28,.37,.41,.14,.15,.3,.3,.45,.44,.04,.04,.2,.16,.26,.21,.06,.04,.12,.08,.14,.1,.13,.09,.26,.17,.4,.24,.15,.09,.31,.16,.47,.24,0,0,0,0,.02,0,.28,.09,.56,.19,.85,.27,.15,.04,.29,.06,.44,.09,.04,0,.09,.01,.09,.01,.3,.02,.59,.03,.88,.02,.03,0,.13,0,.24,0,.02,0,0,0,.04-.01,.06-.01,.12-.02,.19-.03,.31-.06,.61-.14,.91-.24,.08-.03,.16-.06,.24-.08,.03,0,.04-.01,.06-.02,.06-.04,.12-.08,.16-.09,.27-.14,.51-.3,.77-.47,.01,0,.02-.01,.03-.02,.01,0,.01-.01,.03-.03,.11-.1,.23-.2,.34-.31,.13-.12,.25-.26,.37-.39,.02-.03,.05-.05,.07-.08,.17-.28,.37-.54,.52-.83,.04-.08,.09-.17,.13-.26h-8.94Z" fill="#fff"/><path d="M98.59,75s-.09,0-.13-.01c.09,.04,.45,.05,.13,.01Z" fill="#fff"/><path d="M74.03,83.63c.68-1.89,1.33-3.8,1.91-5.72,1.19-3.89,2.37-7.95,2.6-12.03,.11-1.95-.45-3.58,1.13-5.03,1.3-1.2,2.66-2.34,3.99-3.5,4.74-4.14,9.5-8.27,14.26-12.39,1.99-1.73,4.6,.41,3.53,2.74-1,2.18-2,4.36-3.01,6.55,5.43-1.48,10.92-3.51,15.36-6.78,2.08-1.53,4.6,1.87,2.72,3.55-.97,.87-2.08,1.81-3.04,2.85,2.78,.04,5.78-.86,8.22-1.56,2.58-.74,5.14-1.6,7.62-2.64,.97-.41,2,.31,2.54,1.04,2.03,2.7,3.49,5.99,4.5,9.19,.43,1.37,.77,2.76,.99,4.17,.09,.54,.14,1.08,.21,1.62,.02,.12,.07,.35,.08,.42,.31,1.24,.62,2.48,.97,3.71,1.33,4.63,2.8,9.21,4.3,13.79,.04-.02,.08-.04,.12-.06,.27-1.26,.51-2.52,.73-3.78,1.23-7.04,2.01-14.27,1.64-21.42-.18-3.37-.6-6.93-1.95-10.05-1.15-2.65-2.82-4.49-5.5-5.1-.94-.22-1.42-.84-1.56-1.56-.05-.11-.11-.24-.13-.28-.27-.56-.56-1.11-.87-1.65-.98-1.68-2.15-3.22-3.51-4.61-3.55-3.63-8.64-6.35-13.75-6.67-4.55-.28-9.35,.82-13.81,1.62-4.79,.86-9.57,1.84-14.31,2.94-2.42,.56-5.3,1.08-7.92,.67,.15,.12,.29,.24,.44,.36,1.11,.9,.74,2.92-.45,3.55-1.5,.79-3.54,1.72-5.59,2.13,.2,.19,.39,.36,.06,.27,1.8,.51,2.28,3.2,.54,4.13-3.26,1.73-4.32,6.9-5.08,10.17-.84,3.61-1.59,7.52-1.48,11.25,.18,6.06,1.82,12.24,3.41,18.11,.03,0,.06,.01,.09,.02Z" fill="#2e2e2e" stroke="#2e2e2e" stroke-miterlimit="10"/><path d="M12.35,162.46c-1.08-2.75-1.54-5.78-1.84-8.7-.22-2.17-.33-4.55,0-6.8-.89-.14-1.75,.03-2.55,.54-.95,.61-1.04,.88-1.28,1.98-.58,2.57,.16,5.3,.42,7.86,.11,1.03,.16,1.85,.32,2.69,.09,.49,.21,.97,.37,1.44,.04,.12,.32,.69,.45,.85,.11,.14,.32,.31,.52,.41,.38,.18,1.12,.22,1.68,.18,.59-.04,1.18-.18,1.75-.33,.09-.02,.15-.04,.19-.06,0-.02-.02-.04-.02-.06Z" fill="#fff"/><path d="M110.26,119.74s-.15,.02-.25,.04c.11,0,.23-.01,.25-.04Z" fill="#fff"/><path d="M136.34,41.51c-.03-.06-.04-.09,0,0h0Z" fill="#fff"/><path d="M21.26,161.68c-.38-.52-.71-1.1-.95-1.79-.66-1.89-.68-4-.83-5.98-.16-2.17-.36-4.35-.47-6.52-.06-1.2-.05-2.41,.05-3.6-1.02,.02-2.1,.14-2.78,.63-.9,.65-1.13,2.01-1.28,3.03-.45,3.04-.12,6.28,.46,9.28,.26,1.33,.57,2.67,1.02,3.95,.03,.09,.36,.9,.13,.39,.03,.07,.14,.34,.22,.52,.02-.09,.72,.63,.44,.45,.12,.08,.24,.15,.37,.21,.04,.01,.05,.02,.11,.04,.65,.21,.73,.19,1.51,.14,.11,0,.16,0,.18,0,.01,0,.05-.02,.17-.05,.28-.06,.57-.14,.84-.24,.01-.02,.48-.24,.55-.27,.1-.07,.15-.1,.17-.11,.03-.03,.06-.06,.09-.08Z" fill="#fff"/><path d="M73.71,35.2c-.09-.08-.18-.16-.27-.22,0,.02,.13,.17,.27,.22Z" fill="#fff"/><path d="M73.74,35.22s0,0,0,0c0,0-.01-.01-.02-.02,0,0,0,0-.01,0,0,0,.02,.02,.03,.02Z" fill="#fff"/><path d="M73.78,35.25s-.03-.02-.04-.03c-.05,.01-.03,.02,.04,.03Z" fill="#fff"/><path d="M73.8,35.27s0,0-.01-.01c0,0,0,0,0,0,0,0,0,0,.01,.01Z" fill="#fff"/><path d="M112.4,168.62s-.07,0-.11,.01c.04,0,.08,0,.11-.01Z" fill="#fff"/><path d="M132,132.67c-3.51,3.96-7.84,7.12-12.86,9-6.92,2.59-14.82,2.41-21.71-.15-4.64-1.72-8.84-4.41-12.33-7.87-.11,2.22-.34,4.44-.69,6.63,.42,.26,.84,.53,1.26,.79,2.63,1.65,5.25,3.31,7.88,4.96,1.33,.84,2.91,1.57,3.91,2.81,3.98,4.92,7.68,10.06,11.68,14.96,2.31-3.28,4.6-6.57,6.87-9.89,.99-1.45,1.98-2.9,2.96-4.35,.44-.66,.88-1.49,1.49-1.99,1.06-.86,2.68-1.35,3.91-1.97,1.02-.52,2.04-1.06,3.05-1.62,1.64-.91,3.26-1.88,4.8-2.96,.15-.1,.28-.22,.42-.33-.33-2.66-.52-5.35-.64-8.04Z" fill="#fff"/><path d="M46.46,166.87c1.25-5.66,.37-10.86-.23-16.53-.57-5.4-.19-10.91-.23-16.33-.04-5.4-.17-10.79-.3-16.18-.05-2.27,.1-4.67-.23-6.92-.19-1.3-.5-2.81-2.1-2.16-1.56,.64-1.57,2.64-1.7,4.07-.14,1.54-.25,3.09-.34,4.64-.22,3.74-.35,7.49-.44,11.24-.12,4.81-.19,9.62-.19,14.42,0,1.67-1.48,2.38-2.74,2.13-.82,.15-1.7-.11-2.28-1-1.55-2.4-4.05-5.87-7.1-6.34-2.88-.45-4.51,2.7-4.94,5.09-.34,1.91-.17,3.92-.04,5.84,.15,2.04,.3,4.07,.46,6.11,.06,.84,.1,1.69,.26,2.51,.08,.41,.17,.85,.33,1.25,.07,.18,.17,.34,.26,.51,.74,.47,2.33,.71,3.02,.41,.11-.05,.23-.09,.35-.12-1.3-3.28-2.73-6.68-2.78-10.23-.04-3.48,2.28-6.82,6.02-6.73,3.06,.08,4.89,2.99,6.26,5.36,2.5,4.36,4.74,8.83,7.49,13.04,1.59,2.44-2.3,4.7-3.88,2.28-2.75-4.21-4.99-8.68-7.49-13.04-.62-1.08-1.16-2.07-2.01-2.86-.28-.26-.27-.22-.42-.26-.05-.01-.07-.02-.08-.03-.03,0-.07,.02-.14,.03-.05,0,.17-.1-.19,.07-2.16,.99-.6,5.1-.02,6.86,1.16,3.53,3.16,6.98,3.26,10.77,.13,5.09-2.59,9.63-4.3,14.25-1,2.71-5.34,1.53-4.33-1.2,1.12-3.03,2.63-5.92,3.54-9.02,.52-1.8,.65-3.42,.4-5.06-1.44,.49-2.97,.56-4.47,.27-1.12,1.71-3.33,2.71-5.49,2.94-1.45,.15-2.93-.08-4.23-.75-.09-.05-.16-.11-.25-.16-1.89,1.35-4.86,1.67-6.94,1.24-.04,0-.07-.02-.1-.03-.51,3.31-1.38,6.7-.83,9.99,.61,3.7,3.7,6.83,5.56,9.96,2.29,3.84,2.41,8.43,2.72,12.83h21.3c.38-5.56,2.44-10.5,4.39-15.7,2.13-5.68,3.9-11.5,5.22-17.43Z" fill="#fff"/><path d="M189.08,184.25c-2.68-4.84-6.62-8.72-11.42-11.44-4.12-2.33-8.51-4.23-12.8-6.2-5.93-2.73-11.9-5.39-17.89-8-5.23,3.23-10.46,6.47-15.69,9.7-.96,.6-2.57,.28-3.08-.81-1.69-3.61-3.38-7.23-5.08-10.84-1.23-2.62,2.65-4.91,3.88-2.28,1.36,2.91,2.73,5.83,4.09,8.74,4.19-2.59,8.39-5.19,12.58-7.78-2.18-4.17-4.36-8.41-6.11-12.79-.82,.69-1.65,1.36-2.53,1.99-1.37,.98-2.81,1.88-4.27,2.73-1.01,.58-2.03,1.14-3.06,1.68-1.07,.56-2.29,1.42-3.46,1.73,0,0-.63,.26-.76,.2-.31,.33-.56,.84-.82,1.21-.98,1.44-1.96,2.88-2.94,4.32-1.7,2.49-3.44,4.96-5.16,7.43,.09-.02,.19-.03,.28-.05,.41-.09,.81-.2,1.21-.33,.22-.07,.44-.15,.65-.23,.1-.04,.2-.09,.31-.12-.02,0-.04,0-.06,.02-.17,.07-.45,.12,0,0,0,0,.02,0,.02,0,1.11-.51,2.15-1.17,3.14-1.89,1.02-.74,2.47-.14,3.08,.81,.7,1.09,.14,2.4-.81,3.09-1.87,1.36-3.98,2.48-6.24,3-.89,.2-1.8,.31-2.7,.4-.32,.03-.64,.06-.96,.1-.08,0-.17,.02-.25,.03-.01,0-.02,0-.03,0-.05,.01-.1,.02-.15,.03-.28,.05-.55,.05-.81,.02,.12,.28,.19,.57,.2,.87,.11,3.82-.11,7.65,0,11.47,.04,1.27-1.06,2.21-2.25,2.26-1.24,.06-2.21-1.08-2.25-2.26-.11-3.82,.11-7.65,0-11.47,0-.34,.06-.65,.2-.93-.09-.14-.17-.29-.22-.44-2.98-3.56-5.84-7.21-8.67-10.89-1.1-1.43-2.19-2.86-3.28-4.3-.3-.39-.92-.98-1.26-1.52-.2-.12-.4-.26-.58-.38-.97-.61-1.94-1.22-2.91-1.83-3.36-2.12-6.73-4.24-10.09-6.36-1.64,4.2-3.28,8.41-4.92,12.61,2.29,3.35,4.59,6.69,6.88,10.04,2.04-4.69,4.07-9.38,6.11-14.07,1.16-2.66,5.03-.36,3.88,2.28-.86,1.99-1.73,3.98-2.59,5.97,.23,.16,.44,.36,.61,.58,0,0,0,0,.01,0,.08,.07,.15,.17,.22,.25,.13,.13,.27,.25,.4,.37,.05,.03,.09,.06,.14,.1,.18,.12,.36,.23,.55,.33,.19,.11,.39,.21,.59,.3,.07,.03,.14,.06,.21,.09,.01,0,.01,0,.03,0,.43,.16,.85,.31,1.29,.45,2.01,.63,4.08,1.03,6.1,1.61,1.21,.34,1.84,1.58,1.57,2.78-.27,1.18-1.63,1.9-2.77,1.58-3.62-1.03-7.95-1.51-10.84-4.08-1.04,2.4-2.08,4.79-3.12,7.19-.73,1.69-3.03,1.24-3.88,0-1.4-2.04-2.8-4.09-4.2-6.13-1.67-2.44-3.34-4.88-5.01-7.32-.09-.14-.18-.27-.27-.4-6.45,3.12-13.1,5.94-19.89,8.18-.08,.57-.17,1.14-.29,1.72-1.28,5.94-3.02,11.77-5.12,17.46-1.84,4.99-4.07,9.81-4.47,15.15H193.87c-.11-.21-.19-.44-.23-.72-.72-5.21-2-10.4-4.56-15.03Z" fill="#fff"/><path d="M123.77,86.08c2.89,0,2.9-4.52,0-4.52s-2.9,4.52,0,4.52Z" fill="#2e2e2e"/><path d="M95.35,86.08c2.89,0,2.9-4.52,0-4.52s-2.9,4.52,0,4.52Z" fill="#2e2e2e"/><path d="M110.28,105.47c2.89,0,2.9-4.52,0-4.52s-2.9,4.52,0,4.52Z" fill="#2e2e2e"/><path d="M128.38,71.21c-1.51-.63-3.25-.8-4.87-.85-1.85-.05-3.76,.15-5.54,.64-1.13,.31-1.94,1.62-1.57,2.78,.38,1.17,1.55,1.91,2.76,1.58,.37-.1,.74-.19,1.11-.26,.2-.04,.4-.07,.6-.1,.06,0,.13-.02,.19-.02,.81-.09,1.63-.12,2.45-.1,.38,0,.77,.03,1.15,.07,.13,.01,.26,.03,.39,.04,.07,.01,.15,.02,.22,.04,.65,.12,1.3,.28,1.91,.54,.5,.21,1.29,.03,1.73-.23,.47-.27,.91-.81,1.03-1.35,.13-.58,.1-1.23-.23-1.74-.34-.53-.77-.8-1.34-1.04Z" fill="#2e2e2e"/><path d="M73.73,35.2c-.2-.18-.28-.24-.28-.22,.09,.06,.18,.14,.27,.22,0,0,0,0,.01,0Z" fill="#2e2e2e"/><path d="M73.78,35.25s0,0,0,0c-.02-.01-.02-.02-.04-.04,0,0,0,0,0,0,.01,.01,.03,.02,.04,.03Z" fill="#2e2e2e"/><path d="M73.8,35.21s-.05,0-.07-.01c0,0,.01,.01,.02,.02,.01,0,.02,0,.05,0Z" fill="#2e2e2e"/><path d="M197.97,198.08c-1.46-10.5-5.73-20.3-14.38-26.77-4.11-3.07-8.97-5.11-13.6-7.27-4.63-2.16-9.29-4.26-13.96-6.34-2.61-1.16-5.23-2.32-7.85-3.46-2.73-5.21-5.59-10.53-7.48-16.09-.57-1.67-2.44-2.14-3.76-1-.06,.05-.12,.1-.18,.15-.28-3.26-.4-6.55-.42-9.82,0-.23-.05-.46-.12-.67,3.08-5.24,4.74-10.96,5.76-16.91,2.59-.66,5.42-1.33,7.31-3.21,2.98-2.96,4.59-8.28,4.1-12.41-.44-3.72-2.42-7.81-6.1-9.14,.07-.32,.12-.64,.18-.94,.65-3.21,1.16-6.45,1.58-9.69,1.12-8.62,2.04-18.55-1.06-26.87-1.42-3.82-3.93-7.16-7.81-8.48-3.01-6.7-9.38-11.9-16.24-14.09-4.93-1.58-9.53-1.14-14.56-.42-5.44,.78-10.85,1.85-16.23,3-2.29,.49-4.6,1.19-6.92,1.53-1.45,.21-3.03,.23-4.42-.28-.3-.11-.54-.26-.86-.41-.04-.02-.06-.03-.09-.04,0,0,0,0,0,0-1.13-1.05-2.68-.75-3.53,.46-1.33,1.88-1.04,4.07,0,5.9-.99,.37-2.03,.6-3.05,.5-.06,0-.36-.03-.5-.05,0,0,0,0,.01,.01,0,0,0,0-.01-.01-.07-.01-.09-.02-.04-.03,0,0-.02-.02-.03-.02-.13-.05-.27-.19-.27-.22-1.87-1.26-4.19,.89-3.17,3.02,.57,1.2,1.28,2.74,2.21,4.02-2.29,2.46-3.51,6.11-4.35,9.19-1.16,4.27-1.99,8.9-2.11,13.34-.12,4.4,.97,8.95,1.9,13.22,.45,2.06,.95,4.12,1.47,6.17-1.44,.37-2.78,1.14-3.81,2.33-2.39,2.77-2.86,6.83-2.45,10.35,.41,3.53,1.55,7.16,4.42,9.45,1.82,1.45,4.11,2.45,6.41,2.98,1.1,6.56,2.85,13.13,6.42,18.79,.14,.23,.31,.44,.46,.66-.09,.24-.15,.5-.14,.78,.01,1.31-.03,2.62-.09,3.92-.06,1.26-.15,2.53-.27,3.79-.02,.23-.05,.46-.07,.69-.02-.02-.05-.03-.07-.05-1.34-.84-2.8,.05-3.3,1.35-1.72,4.41-3.44,8.83-5.17,13.24-.08,.03-.16,.05-.24,.09-6.43,3.22-13.1,6.11-19.92,8.47-.03-3.68-.56-7.32-.92-11.13-.56-5.96-.11-12.06-.19-18.05-.07-5.84-.23-11.68-.36-17.52-.09-3.72-.34-9.35-5.08-9.97-4.89-.64-7.32,3.53-7.76,7.76-.4,3.81-.57,7.65-.71,11.49-.18,4.76-.26,9.52-.31,14.27-1.36-1.45-2.9-2.7-4.65-3.47-3.48-1.53-7.33-.72-9.78,2.25-.74,.9-1.29,1.88-1.71,2.9-.13-.02-.25-.05-.39-.05-3.06-.07-6.09,.83-7.75,3.37-2.84-.71-6.12,.2-8.05,2.46-2.12,2.49-2.07,6.13-1.68,9.2,.09,.76,.26,1.85,.33,2.38,.02,.18,.1,.98,.14,1.4,.12,1.25,.24,2.53,.54,3.76,.19,.79,.49,1.55,.88,2.24-.11,.24-.19,.51-.21,.81-.3,4.1-1.56,8.07-1.14,12.22,.4,3.99,2.82,7.15,4.96,10.38,.59,.89,1.16,1.8,1.68,2.73,.19,.35,.41,.71,.58,1.08,.02,.09,.07,.26,.08,.32,.22,1.03,.35,2.07,.47,3.12,.2,1.75,.36,3.51,.51,5.27h4.51c-.32-4.4-.44-8.99-2.72-12.83-1.86-3.12-4.95-6.26-5.56-9.96-.54-3.29,.32-6.68,.83-9.99,.03,0,.07,.02,.1,.03,2.07,.43,5.05,.12,6.94-1.24,.08,.05,.16,.11,.25,.16,1.3,.67,2.78,.91,4.23,.75,2.16-.23,4.37-1.23,5.49-2.94,1.5,.3,3.03,.22,4.47-.27,.24,1.64,.12,3.27-.4,5.06-.91,3.11-2.42,6-3.54,9.02-1.01,2.73,3.33,3.91,4.33,1.2,1.71-4.62,4.44-9.16,4.3-14.25-.1-3.79-2.1-7.24-3.26-10.77-.58-1.77-2.14-5.87,.02-6.86,.36-.17,.14-.06,.19-.07,.07-.01,.11-.02,.14-.03,.01,0,.03,.02,.08,.03,.15,.04,.14,0,.42,.26,.86,.79,1.39,1.78,2.01,2.86,2.5,4.36,4.74,8.83,7.49,13.04,1.58,2.42,5.47,.16,3.88-2.28-2.75-4.21-4.99-8.68-7.49-13.04-1.36-2.37-3.2-5.28-6.26-5.36-3.74-.09-6.06,3.25-6.02,6.73,.04,3.55,1.47,6.95,2.78,10.23-.12,.04-.23,.07-.35,.12-.7,.3-2.29,.05-3.02-.41-.1-.16-.19-.33-.26-.51-.16-.39-.25-.83-.33-1.25-.16-.83-.2-1.68-.26-2.51-.15-2.04-.31-4.07-.46-6.11-.14-1.92-.31-3.93,.04-5.84,.43-2.39,2.05-5.53,4.94-5.09,3.05,.47,5.56,3.94,7.1,6.34,.58,.89,1.46,1.15,2.28,1,1.26,.25,2.74-.46,2.74-2.13,0-4.81,.07-9.62,.19-14.42,.09-3.75,.22-7.5,.44-11.24,.09-1.55,.2-3.09,.34-4.64,.13-1.43,.14-3.43,1.7-4.07,1.6-.65,1.91,.86,2.1,2.16,.33,2.25,.18,4.65,.23,6.92,.13,5.39,.25,10.79,.3,16.18,.04,5.43-.34,10.93,.23,16.33,.6,5.67,1.49,10.87,.23,16.53-1.31,5.93-3.09,11.75-5.22,17.43-1.95,5.2-4.01,10.14-4.39,15.7h4.5c.4-5.34,2.62-10.16,4.47-15.15,2.1-5.69,3.85-11.52,5.12-17.46,.12-.58,.21-1.15,.29-1.72,6.79-2.25,13.44-5.06,19.89-8.18,.09,.13,.18,.26,.27,.4,1.67,2.44,3.34,4.88,5.01,7.32,1.4,2.04,2.8,4.09,4.2,6.13,.85,1.24,3.15,1.69,3.88,0,1.04-2.4,2.08-4.79,3.12-7.19,2.89,2.57,7.22,3.06,10.84,4.08,1.13,.32,2.5-.39,2.77-1.58,.27-1.2-.36-2.43-1.57-2.78-2.02-.58-4.09-.98-6.1-1.61-.43-.14-.86-.29-1.29-.45-.01,0-.02,0-.03,0-.07-.03-.14-.06-.21-.09-.2-.09-.4-.19-.59-.3-.19-.1-.37-.21-.55-.33-.05-.03-.09-.06-.14-.1-.13-.13-.28-.24-.4-.37-.08-.08-.14-.17-.22-.25,0,0,0,0-.01,0-.17-.22-.38-.42-.61-.58,.86-1.99,1.73-3.98,2.59-5.97,1.15-2.64-2.73-4.94-3.88-2.28-2.04,4.69-4.07,9.38-6.11,14.07-2.29-3.35-4.59-6.69-6.88-10.04,1.64-4.2,3.28-8.41,4.92-12.61,3.36,2.12,6.73,4.24,10.09,6.36,.97,.61,1.94,1.22,2.91,1.83,.19,.12,.38,.26,.58,.38,.34,.54,.96,1.13,1.26,1.52,1.09,1.44,2.18,2.87,3.28,4.3,2.83,3.68,5.69,7.34,8.67,10.89,.05,.16,.13,.3,.22,.44-.13,.28-.2,.59-.2,.93,.11,3.82-.11,7.65,0,11.47,.03,1.18,1.01,2.31,2.25,2.26,1.19-.05,2.28-.99,2.25-2.26-.11-3.82,.11-7.65,0-11.47,0-.3-.08-.6-.2-.87,.26,.03,.53,.03,.81-.02,.05,0,.1-.02,.15-.03,.01,0,.01,0,.03,0,.08,0,.17-.02,.25-.03,.32-.03,.64-.06,.96-.1,.9-.09,1.81-.2,2.7-.4,2.27-.51,4.37-1.64,6.24-3,.95-.69,1.51-2,.81-3.09-.61-.95-2.06-1.55-3.08-.81-.99,.72-2.03,1.37-3.14,1.89,0,0-.02,0-.02,0,.02,0,.03,0,.06-.02-.1,.03-.21,.08-.31,.12-.22,.08-.43,.16-.65,.23-.4,.13-.8,.24-1.21,.33-.09,.02-.19,.04-.28,.05,1.72-2.47,3.46-4.94,5.16-7.43,.98-1.44,1.96-2.88,2.94-4.32,.25-.37,.5-.88,.82-1.21,.14,.06,.76-.2,.76-.2,1.17-.32,2.39-1.17,3.46-1.73,1.03-.54,2.05-1.1,3.06-1.68,1.46-.85,2.89-1.74,4.27-2.73,.88-.63,1.71-1.3,2.53-1.99,1.75,4.37,3.93,8.62,6.11,12.79-4.19,2.59-8.39,5.19-12.58,7.78-1.36-2.91-2.73-5.83-4.09-8.74-1.23-2.63-5.11-.34-3.88,2.28,1.69,3.61,3.38,7.23,5.08,10.84,.51,1.09,2.11,1.41,3.08,.81,5.23-3.23,10.46-6.47,15.69-9.7,5.99,2.61,11.95,5.27,17.89,8,4.29,1.97,8.68,3.88,12.8,6.2,4.8,2.71,8.74,6.59,11.42,11.44,2.56,4.63,3.84,9.81,4.56,15.03,.04,.28,.13,.51,.23,.72h3.53c.43-.49,.68-1.14,.57-1.92ZM12.18,162.57c-.57,.15-1.16,.28-1.75,.33-.56,.04-1.3,0-1.68-.18-.21-.1-.41-.27-.52-.41-.13-.16-.41-.73-.45-.85-.16-.47-.27-.95-.37-1.44-.16-.84-.22-1.66-.32-2.69-.26-2.57-1-5.29-.42-7.86,.25-1.09,.33-1.37,1.28-1.98,.8-.51,1.66-.68,2.55-.54-.32,2.26-.21,4.64,0,6.8,.3,2.92,.76,5.96,1.84,8.7,0,.02,.02,.04,.02,.06-.04,.02-.1,.03-.19,.06Zm8.98-.81s-.07,.04-.17,.11c-.06,.04-.53,.25-.55,.27-.27,.1-.56,.18-.84,.24-.12,.03-.16,.04-.17,.05-.03,0-.08,0-.18,0-.78,.05-.85,.06-1.51-.14-.07-.02-.08-.03-.11-.04-.13-.06-.25-.14-.37-.21,.28,.18-.42-.54-.44-.45-.08-.18-.19-.45-.22-.52,.22,.51-.1-.3-.13-.39-.45-1.28-.76-2.62-1.02-3.95-.58-2.99-.91-6.24-.46-9.28,.15-1.02,.38-2.38,1.28-3.03,.67-.49,1.75-.61,2.78-.63-.1,1.19-.11,2.39-.05,3.6,.12,2.18,.31,4.35,.47,6.52,.15,1.98,.17,4.09,.83,5.98,.24,.69,.57,1.26,.95,1.79-.03,.03-.06,.06-.09,.08ZM136.34,41.51s-.03-.06-.02-.06c0,0,0,.01,.02,.06Zm-64.33,12.74c.76-3.27,1.82-8.44,5.08-10.17,1.74-.92,1.26-3.62-.54-4.13,.33,.09,.15-.07-.06-.27,2.05-.41,4.08-1.34,5.59-2.13,1.19-.62,1.56-2.65,.45-3.55-.14-.11-.29-.23-.44-.36,2.62,.4,5.49-.11,7.92-.67,4.74-1.1,9.52-2.08,14.31-2.94,4.45-.8,9.25-1.9,13.81-1.62,5.12,.32,10.2,3.04,13.75,6.67,1.36,1.39,2.53,2.93,3.51,4.61,.31,.54,.6,1.09,.87,1.65,.02,.04,.08,.16,.13,.28,.14,.71,.62,1.34,1.56,1.56,2.69,.62,4.35,2.45,5.5,5.1,1.35,3.12,1.78,6.67,1.95,10.05,.37,7.15-.41,14.38-1.64,21.42-.22,1.26-.46,2.53-.73,3.78-.04,.02-.08,.04-.12,.06-1.5-4.57-2.98-9.16-4.3-13.79-.35-1.23-.67-2.47-.97-3.71-.02-.07-.06-.3-.08-.42-.08-.54-.13-1.08-.21-1.62-.23-1.42-.56-2.81-.99-4.17-1.01-3.21-2.48-6.49-4.5-9.19-.54-.72-1.57-1.44-2.54-1.04-2.48,1.04-5.04,1.9-7.62,2.64-2.44,.7-5.44,1.6-8.22,1.56,.97-1.04,2.07-1.98,3.04-2.85,1.87-1.68-.65-5.08-2.72-3.55-4.43,3.27-9.92,5.3-15.36,6.78,1-2.18,2-4.36,3.01-6.55,1.07-2.32-1.54-4.46-3.53-2.74-4.76,4.12-9.52,8.25-14.26,12.39-1.33,1.16-2.69,2.3-3.99,3.5-1.58,1.46-1.02,3.08-1.13,5.03-.23,4.08-1.41,8.14-2.6,12.03-.59,1.92-1.23,3.83-1.91,5.72-.03,0-.06-.01-.09-.02-1.59-5.87-3.23-12.05-3.41-18.11-.11-3.73,.65-7.64,1.48-11.25Zm58.44,29.97c-.02,1.25-.46,2.59-1.26,3.85-.77,1.21-1.87,2.22-3.23,2.91-1.21,.61-2.72,.75-4.08,.37-1.41-.4-2.53-1.21-3.59-2.42-.91-1.04-1.52-2.32-1.82-3.8-.01-.06-.04-.27-.04-.32,0-.12-.02-.23-.02-.35,0-.24,0-.47,.01-.7,0-.02,0-.08,.01-.13,.06-.32,.14-.64,.26-.94,.01-.03,.03-.07,.04-.08,.12-.21,.23-.42,.37-.62,.01-.02,.02-.02,.02-.04,.02-.02,.04-.04,.07-.07,.09-.1,.19-.2,.29-.3,.13-.13,.27-.25,.41-.36,.03-.02,.06-.04,.12-.08,.77-.5,1.08-.63,1.83-.86,1.65-.51,3.11-.59,4.94-.44,1.45,.12,2.96,.53,4.21,1.4,.06,.05,.14,.1,.17,.13,.18,.17,.35,.33,.52,.51,.02,.02,.05,.06,.08,.1,.1,.14,.2,.29,.28,.44,.02,.03,.14,.3,.17,.36,.05,.15,.11,.31,.15,.47,.03,.11,.05,.22,.07,.33-.03-.07,.04,.57,.04,.65Zm-3.55-8.64c-4.2-.79-9.4-.36-12.61,2.79-1.08,1.06-1.75,2.32-2.09,3.67h-5.58c-1.01-3.51-4.24-5.75-7.94-6.44-1.82-.34-3.81-.45-5.77-.27,.38-.12,.77-.22,1.17-.29,.06-.01,.25-.04,.35-.06,.1-.01,.21-.02,.25-.03,.4-.04,.81-.06,1.22-.07,.79-.02,1.59,0,2.38,.09,.05,0,.11,.01,.16,.02,.11,.08,.5,.08,.63,.1,.4,.07,.79,.17,1.18,.27,1.13,.31,2.5-.39,2.77-1.58,.27-1.19-.36-2.45-1.57-2.78-1.79-.49-3.69-.69-5.54-.64-1.62,.04-3.36,.22-4.87,.85-.57,.24-1.02,.48-1.34,1.04-.28,.48-.4,1.2-.23,1.74,.23,.71,.88,1.39,1.65,1.62-2.13,.44-4.14,1.31-5.71,2.79-.5,.47-.9,.99-1.24,1.54-.03,0-.05,0-.08,0-1.41,.15-2.82,.3-4.23,.46,.31-.99,.63-1.97,.91-2.96,1.24-4.32,2.47-8.97,2.23-13.52,3.37-2.97,6.75-5.93,10.15-8.87-.21,.46-.42,.92-.63,1.38-.82,1.78,.52,3.78,2.54,3.32,4.07-.93,8.38-2.1,12.43-3.74,.18,.7,.71,1.28,1.54,1.63,3.98,1.65,9.09,.34,13.05-.74,2.36-.64,4.68-1.43,6.96-2.31,1.37,2.19,2.43,4.63,3.16,7.08,.94,3.18,1.26,6.5,2.19,9.7,.85,2.95,1.77,5.89,2.7,8.82-.68-.11-1.35-.23-2.03-.34-.2-.03-.39-.07-.59-.1-.3-.09-.6-.11-.9-.04,0,0-.01,0-.02,0-1.45-2.16-3.89-3.59-6.65-4.11Zm-24.44,8.64c-.01,.78-.08,1.03-.34,1.91-.16,.54-.59,1.34-1.03,1.99-.81,1.19-2.09,2.29-3.53,2.91-2.77,1.2-5.88,.24-8-2.02-1.04-1.11-1.68-2.38-2.02-3.84-.01-.05-.05-.28-.06-.33-.01-.13-.02-.26-.03-.39,0-.2,0-.4,0-.61,0-.06,.03-.26,.04-.32,.05-.22,.14-.54,.17-.65,.04-.07,.2-.4,.18-.38,.09-.17,.2-.33,.31-.48,0,.02,.42-.43,.49-.5,.04-.04,.18-.15,.23-.19,.1-.07,.2-.14,.31-.21,.75-.47,1.11-.62,1.93-.86,1.65-.49,3.24-.58,5.01-.47,1.71,.11,3.39,.52,4.77,1.45,.41,.27,.83,.69,1.14,1.25,.05,.09,.09,.18,.14,.28,0,.03,.13,.39,.13,.4,0-.04,.07,.31,.1,.41,0,.13,.04,.53,.04,.62Zm-4.01-9.23s.09,0,.13,.01c.32,.03-.04,.03-.13-.01Zm13.83,93.65s.07,0,.11-.01c-.04,0-.07,0-.11,.01Zm19.93-27.6c-1.55,1.07-3.16,2.04-4.8,2.96-1,.56-2.02,1.1-3.05,1.62-1.22,.62-2.85,1.11-3.91,1.97-.62,.5-1.05,1.33-1.49,1.99-.98,1.45-1.97,2.9-2.96,4.35-2.26,3.31-4.56,6.6-6.87,9.89-4-4.91-7.7-10.04-11.68-14.96-1-1.24-2.58-1.97-3.91-2.81-2.63-1.65-5.25-3.31-7.88-4.96-.42-.26-.84-.53-1.26-.79,.35-2.19,.57-4.41,.69-6.63,3.48,3.46,7.69,6.15,12.33,7.87,6.9,2.56,14.8,2.75,21.71,.15,5.02-1.88,9.35-5.04,12.86-9,.11,2.69,.31,5.38,.64,8.04-.14,.1-.27,.22-.42,.33Zm-11.54-4.97c-1.22,.65-2.49,1.15-3.77,1.58v-2.24c0-.58-.25-1.19-.66-1.6-.39-.39-1.03-.69-1.59-.66-.58,.03-1.18,.22-1.59,.66-.4,.44-.66,.99-.66,1.6v3.29c-.3,.04-.6,.09-.9,.12v-3.41c0-.58-.25-1.19-.66-1.6-.39-.39-1.03-.69-1.59-.66-.58,.03-1.18,.22-1.59,.66-.4,.44-.66,.99-.66,1.6v3.49c-.3-.02-.6-.02-.9-.04v-3.45c0-.58-.25-1.19-.66-1.6-.39-.39-1.03-.69-1.59-.66-.58,.03-1.18,.22-1.59,.66-.4,.44-.66,.99-.66,1.6v2.65c-6.6-1.7-12.65-5.68-16.6-11.37-4.13-5.95-5.83-13.08-6.94-20.15-.11-.68-.88-1.48-1.57-1.58-1.68-.24-3.4-.76-4.89-1.58-2.27-1.25-3.24-3.2-3.78-5.67-.51-2.29-.62-5.05,.35-7.24,.91-2.05,2.99-2.96,4.98-1.7,.99,.63,1.94,.36,2.57-.28,.86-.12,1.53-.73,1.87-1.62,.23-.59,.42-1.19,.64-1.78,1.58-.17,3.17-.34,4.75-.51,.07,2.09,.81,4.21,2.02,5.94,2.85,4.08,7.78,6.5,12.73,5.2,4.28-1.12,7.85-4.83,8.89-9.15h5.56c.32,1.42,.91,2.8,1.71,4,2.66,3.96,7.35,6.44,12.13,5.17,4.95-1.32,8.74-6.25,8.89-11.36,.8,.13,1.59,.27,2.39,.4,.2,.03,.39,.07,.59,.1,.24,.07,.48,.08,.71,.06,.19,.57,.37,1.13,.55,1.7-.84,1.59,1,4.01,3.1,3.07,.29-.1,.58-.21,.88-.29,.69-.19,1.4-.3,2.12-.18,2.75,.44,3.81,4.4,3.73,6.76-.09,2.53-1.17,6.65-3.52,8.05-1.71,1.02-4.13,1.35-6.04,1.88-.69,.19-1.45,.82-1.57,1.58-1.79,11.45-6.44,22.89-17.2,28.58Z" fill="#2e2e2e"/><path d="M116.97,163.12c-.45,.12-.17,.07,0,0h0Z" fill="#2e2e2e"/><path d="M99.61,115.27c.67,3.95,3.26,7.46,7.16,8.64,3.34,1.01,7.26,0,9.57-2.67,1.61-1.87,2.37-4.13,2.56-6.57,.09-1.22-1.11-2.26-2.25-2.26h-14.87s-.09,.01-.14,.01c-.05,0-.1,.01-.15,.02-.07,0-.13,.02-.2,.03-.04,0-.08,0-.11,.02-.04,.01-.06,.04-.1,.05-.21,.07-.42,.17-.6,.31-.07,.05-.13,.1-.19,.15-.48,.42-.79,1.01-.76,1.67,0,.17,.04,.34,.08,.5,0,.03,0,.06,0,.1Zm10.4,4.51c.1-.02,.25-.05,.25-.04-.02,.03-.13,.04-.25,.04Zm3.17-1.77s-.05,.06-.07,.08c-.12,.13-.24,.26-.37,.39-.11,.11-.23,.21-.34,.31-.01,.01-.02,.02-.03,.03-.01,0-.02,0-.03,.02-.25,.16-.5,.33-.77,.47-.03,.02-.1,.06-.16,.09-.02,0-.03,0-.06,.02-.08,.02-.16,.06-.24,.08-.3,.1-.6,.18-.91,.24-.06,.01-.12,.02-.19,.03-.03,0-.03,0-.04,.01-.1,0-.21,0-.24,0-.3,.01-.59,0-.88-.02,0,0-.05,0-.09-.01-.15-.03-.3-.05-.44-.09-.29-.07-.57-.17-.85-.27,0,0,0,0-.02,0-.16-.08-.31-.16-.47-.24-.13-.08-.27-.16-.4-.24-.02-.01-.08-.05-.14-.1-.07-.05-.22-.17-.26-.21-.16-.14-.31-.28-.45-.44-.13-.13-.23-.29-.37-.41-.03-.05-.07-.1-.1-.14-.15-.21-.26-.44-.39-.67h8.94c-.04,.09-.08,.17-.13,.26-.16,.29-.35,.55-.52,.83Z" fill="#2e2e2e"/></g></g></svg>